<?xml version="1.0" encoding="UTF-8" standalone="no"?>
<!-- Created with Inkscape (http://www.inkscape.org/) -->

<svg
   xmlns:dc="http://purl.org/dc/elements/1.1/"
   xmlns:cc="http://creativecommons.org/ns#"
   xmlns:rdf="http://www.w3.org/1999/02/22-rdf-syntax-ns#"
   xmlns:svg="http://www.w3.org/2000/svg"
   xmlns="http://www.w3.org/2000/svg"
   xmlns:sodipodi="http://sodipodi.sourceforge.net/DTD/sodipodi-0.dtd"
   xmlns:inkscape="http://www.inkscape.org/namespaces/inkscape"
   sodipodi:docname="bird.svg"
   inkscape:version="0.91 r13725"
   version="1.1"
   id="svg2"
   viewBox="0 0 456.31768 167.18384"
   height="47.182995mm"
   width="128.78299mm">
  <defs
     id="defs4" />
  <sodipodi:namedview
     inkscape:window-maximized="0"
     inkscape:window-y="18"
     inkscape:window-x="0"
     inkscape:window-height="729"
     inkscape:window-width="1362"
     fit-margin-bottom="0"
     fit-margin-right="0"
     fit-margin-left="0"
     fit-margin-top="0"
     showgrid="false"
     inkscape:current-layer="layer1"
     inkscape:document-units="px"
     inkscape:cy="102.47301"
     inkscape:cx="251.08861"
     inkscape:zoom="1.9837509"
     inkscape:pageshadow="2"
     inkscape:pageopacity="0.0"
     borderopacity="1.0"
     bordercolor="#666666"
     pagecolor="#ffffff"
     id="base" />
  <metadata
     id="metadata7">
    <rdf:RDF>
      <cc:Work
         rdf:about="">
        <dc:format>image/svg+xml</dc:format>
        <dc:type
           rdf:resource="http://purl.org/dc/dcmitype/StillImage" />
        <dc:title />
      </cc:Work>
    </rdf:RDF>
  </metadata>
  <g
     inkscape:label="0"
     inkscape:groupmode="layer"
     id="g3387"
     transform="translate(-325.295,-515.85683)"
     style="display:inline;opacity:1">
    <path
       sodipodi:nodetypes="cccccccccccc"
       inkscape:connector-curvature="0"
       id="0"
       d="m 1499.3878,1208.7575 c 3.2329,-9.1684 8.3341,-10.8637 13.5451,-12.1193 8.5989,-0.8397 13.931,4.2007 19.2483,9.2677 4.2707,1.3928 12.0207,2.2886 12.1193,4.2774 0.6736,2.5806 -2.6311,3.6311 -10.6935,2.8516 -0.2665,24.0325 -18.1084,35.3315 -17.6285,59.2423 -9.7926,-1.8926 -7.6371,-13.0704 -39.9223,-2.8516 -34.7998,9.704 -41.479,4.4105 -48.4772,-0.7129 -3.6743,-25.5733 -26.633,-28.0582 -27.6659,-43.0396 5.9209,-1.0495 19.0658,0.7728 39.7024,12.9285 23.2424,-12.1691 29.7975,-5.6871 43.5696,-4.1081 z"
       style="fill:#000000;fill-rule:evenodd;stroke:#000000;stroke-width:1px;stroke-linecap:butt;stroke-linejoin:miter;stroke-opacity:1"
       inkscape:label="#path3391" />
  </g>
  <g
     style="display:inline;opacity:1"
     transform="translate(-325.295,-515.85683)"
     id="g4229"
     inkscape:groupmode="layer"
     inkscape:label="1">
    <path
       style="fill:#000000;fill-rule:evenodd;stroke:#000000;stroke-width:1px;stroke-linecap:butt;stroke-linejoin:miter;stroke-opacity:1"
       d="m 1945.3641,1208.7575 c 3.2329,-9.1684 8.334,-10.8637 13.5451,-12.1193 8.5989,-0.8397 13.931,4.2007 19.2483,9.2677 4.2707,1.3928 12.0207,2.2886 12.1192,4.2774 0.6737,2.5806 -2.631,3.6311 -10.6934,2.8516 -0.2666,24.0325 -18.1084,35.3315 -17.6285,59.2423 -9.7926,-1.8926 -7.6372,-13.0704 -39.9224,-2.8516 -34.7997,9.704 -41.4789,4.4105 -48.4771,-0.7129 -3.6744,-25.5733 -26.6331,-28.0582 -27.6659,-43.0396 5.9208,-1.0495 19.0658,0.7728 39.7024,12.9285 27.9773,-26.1245 34.0882,-18.3332 43.5696,-4.1081 z"
       id="1"
       inkscape:connector-curvature="0"
       sodipodi:nodetypes="cccccccccccc"
       inkscape:label="#path4231" />
  </g>
  <g
     style="display:inline;opacity:1"
     transform="translate(-325.295,-515.85683)"
     id="g4225"
     inkscape:groupmode="layer"
     inkscape:label="2">
    <path
       style="fill:#000000;fill-rule:evenodd;stroke:#000000;stroke-width:1px;stroke-linecap:butt;stroke-linejoin:miter;stroke-opacity:1"
       d="m 2385.797,1208.7575 c 3.2329,-9.1684 8.334,-10.8637 13.5451,-12.1193 8.5989,-0.8397 13.931,4.2007 19.2482,9.2677 4.2708,1.3928 12.0207,2.2886 12.1193,4.2774 0.6737,2.5806 -2.631,3.6311 -10.6935,2.8516 -0.2665,24.0325 -18.1083,35.3315 -17.6285,59.2423 -9.7926,-1.8926 -7.6371,-13.0704 -39.9223,-2.8516 -34.7997,9.704 -41.4789,4.4105 -48.4771,-0.7129 -3.6744,-25.5733 -26.6331,-28.0582 -27.6659,-43.0396 5.9208,-1.0495 19.0658,0.7728 39.7024,12.9285 1.8931,-0.4612 -2.6778,-8.1627 -7.6378,-9.9173 -33.0072,-11.6758 25.9866,-26.3598 43.8707,-18.9763 8.0166,3.3096 -1.578,23.9978 7.3367,24.7855 z"
       id="2"
       inkscape:connector-curvature="0"
       sodipodi:nodetypes="ccccccccccsscc"
       inkscape:label="#path4227" />
  </g>
  <g
     style="display:inline;opacity:1"
     transform="translate(-325.295,-515.85683)"
     id="g3393"
     inkscape:groupmode="layer"
     inkscape:label="3">
    <path
       style="fill:#000000;fill-rule:evenodd;stroke:#000000;stroke-width:1px;stroke-linecap:butt;stroke-linejoin:miter;stroke-opacity:1"
       d="m 2809.9834,1225.1261 c 3.2329,-9.1684 8.334,-10.8637 13.5451,-12.1193 8.5989,-0.8398 13.931,4.2006 19.2483,9.2677 4.2707,1.3928 12.0207,2.2886 12.1193,4.2774 0.6736,2.5806 -2.6311,3.631 -10.6935,2.8516 -15.0777,20.1276 -18.1777,29.1621 -25.6941,48.1521 -9.7926,-1.8926 -7.6371,-13.0704 -39.9223,-2.8516 -34.7997,9.7041 -41.4789,4.4106 -48.4771,-0.7129 -3.6744,-25.5732 -26.6331,-28.0581 -27.6659,-43.0395 5.9208,-1.0495 18.4357,1.6549 39.0723,13.8107 2.1174,-0.885 -5.4955,-35.7522 -5.4955,-35.7522 -60.8646,-2.7874 18.2425,-32.6719 41.3503,-8.1383 5.9465,6.3134 -0.5698,38.1125 8.3449,38.9002 z"
       id="3"
       inkscape:connector-curvature="0"
       sodipodi:nodetypes="ccccccccccsscc"
       inkscape:label="#path3397" />
  </g>
  <g
     inkscape:label="4"
     inkscape:groupmode="layer"
     id="g3399"
     transform="translate(-325.295,-515.85683)"
     style="display:inline;opacity:1">
    <path
       sodipodi:nodetypes="ccccccccccsscc"
       inkscape:connector-curvature="0"
       id="4"
       d="m 1050.4465,1232.2577 c 3.2329,-9.1685 6.3177,-11.8719 11.5287,-13.1275 8.5989,-0.8398 13.931,4.2006 19.2483,9.2677 4.2707,1.3928 12.0207,2.2885 12.1193,4.2774 0.6736,2.5806 -2.6311,3.631 -10.6935,2.8516 -25.2905,15.504 -26.6269,30.5636 -27.2063,52.1849 -9.7926,-1.8926 -7.6371,-13.0704 -39.9224,-2.8516 -34.79973,9.704 -41.47894,4.4105 -48.47713,-0.7129 -3.67437,-25.5732 -26.63307,-28.0582 -27.6659,-43.0396 5.92083,-1.0495 18.43569,1.655 39.07228,13.8107 2.11745,-0.885 -5.49543,-35.7522 -5.49543,-35.7522 -50.14372,-63.5391 18.47348,-33.9811 41.35028,-8.1383 5.7487,6.494 -0.5698,38.1125 8.3449,38.9002 9.2284,-5.9107 12.2798,-9.0893 27.7969,-17.6704 z"
       style="fill:#000000;fill-rule:evenodd;stroke:#000000;stroke-width:1px;stroke-linecap:butt;stroke-linejoin:miter;stroke-opacity:1"
       inkscape:label="#path3403" />
  </g>
  <g
     style="display:inline;opacity:1"
     transform="translate(-325.295,-515.85683)"
     id="g3405"
     inkscape:groupmode="layer"
     inkscape:label="5">
    <path
       style="fill:#000000;fill-rule:evenodd;stroke:#000000;stroke-width:1px;stroke-linecap:butt;stroke-linejoin:miter;stroke-opacity:1"
       d="m 1047.0603,1384.0659 c 7.06,-6.6834 9.7039,-9.9114 14.9149,-11.167 8.5989,-0.8398 13.931,4.2006 19.2483,9.2677 4.2707,1.3928 12.0207,2.2885 12.1193,4.2774 0.6736,2.5805 -2.6311,3.631 -10.6935,2.8515 -25.2905,15.5041 -20.9237,34.1282 -28.2757,49.3334 -23.6488,-1.2565 -42.828,3.4757 -75.21085,-2.8516 -18.2888,-20.2265 -38.75235,-25.9195 -39.78518,-40.9009 5.92083,-1.0495 18.43569,1.6549 39.07228,13.8107 2.11745,-0.885 3.4158,-38.6038 3.4158,-38.6038 -38.84861,-119.2617 17.81342,-40.9193 39.21165,-7.7819 4.7048,7.2859 -7.3424,40.6077 1.5723,41.3954 9.2284,-5.9107 11.5335,-7.4409 24.4107,-19.6309 z"
       id="5"
       inkscape:connector-curvature="0"
       sodipodi:nodetypes="sccccccccsscs"
       inkscape:label="#path3409" />
  </g>
  <g
     inkscape:label="6"
     inkscape:groupmode="layer"
     id="g3411"
     transform="translate(-325.295,-515.85683)"
     style="display:inline;opacity:1">
    <path
       sodipodi:nodetypes="accccccccssca"
       inkscape:connector-curvature="0"
       id="6"
       d="m 588.49768,1231.9657 c 5.76526,-3.8146 12.37727,-9.7332 17.58834,-10.9888 8.59887,-0.8398 13.93097,4.2006 19.24826,9.2677 4.27071,1.3928 12.0207,2.2885 12.11928,4.2774 0.67363,2.5805 -2.63105,3.631 -10.69348,2.8516 -25.29045,15.504 -26.98334,33.7716 -34.33531,48.9768 -23.64884,-1.2565 -42.82798,3.4757 -75.21082,-2.8516 -18.2888,-20.2265 -38.75235,-19.5034 -39.78518,-34.4847 5.92083,-1.0495 18.43569,-4.7612 39.07228,7.3946 2.11745,-0.8851 11.61414,-30.4055 11.61414,-30.4055 -26.70912,-74.2741 20.56212,-30.7329 39.21157,-7.7819 5.46941,6.731 -15.54067,32.4094 -6.62599,33.1971 9.22837,-5.9107 18.36532,-13.2123 27.79691,-19.4527 z"
       style="fill:#000000;fill-rule:evenodd;stroke:#000000;stroke-width:1px;stroke-linecap:butt;stroke-linejoin:miter;stroke-opacity:1"
       inkscape:label="#path3415" />
  </g>
  <g
     style="display:inline;opacity:1"
     transform="translate(-325.295,-515.85683)"
     id="g3417"
     inkscape:groupmode="layer"
     inkscape:label="7">
    <path
       style="fill:#000000;fill-rule:evenodd;stroke:#000000;stroke-width:1px;stroke-linecap:butt;stroke-linejoin:miter;stroke-opacity:1"
       d="m 593.41708,1363.2813 c 6.22789,-3.7369 12.36678,-11.6198 17.57785,-12.8754 8.59887,-0.8398 13.93097,4.2006 19.24826,9.2677 4.27071,1.3928 12.0207,2.2885 12.11928,4.2774 0.67363,2.5805 0,0 -10.69348,2.8516 -3.38599,3.8039 -26.88883,15.9906 -29.11179,19.501 -9.16051,14.4657 -10.97568,9.827 -17.2755,21.8711 -15.4505,4.4467 -40.68928,11.6741 -73.07212,5.3468 -18.2888,-21.3164 -38.75235,-22.9037 -39.78518,-34.4848 5.92083,-1.0495 18.43569,-4.7611 39.07228,7.3946 2.11745,-0.885 11.61414,-30.4055 11.61414,-30.4055 -47.99809,-42.7077 16.84172,-25.2164 39.21157,-7.7818 6.8407,5.3315 -15.54067,32.4093 -6.62599,33.197 9.22837,-5.9107 25.75467,-10.9798 37.72068,-18.1597 z"
       id="7"
       inkscape:connector-curvature="0"
       sodipodi:nodetypes="accccsccccssca"
       inkscape:label="#path3421" />
  </g>
  <g
     inkscape:label="8"
     inkscape:groupmode="layer"
     id="g3423"
     transform="translate(-325.295,-515.85683)"
     style="display:inline;opacity:1">
    <path
       sodipodi:nodetypes="accccccccasaa"
       inkscape:connector-curvature="0"
       id="8"
       d="m 2813.5636,1092.0858 c 6.8028,-2.621 13.627,-9.8555 18.8381,-11.1111 8.5988,-0.8397 13.9309,4.2007 19.2482,9.2677 4.2707,1.3928 12.0207,2.2886 12.1193,4.2774 0.6736,2.5806 -2.6311,3.6311 -10.6935,2.8516 -25.2904,15.504 -39.2874,26.9231 -46.6393,42.1283 -15.4505,4.4468 -40.6893,11.6741 -73.0721,5.3468 -18.2888,-21.3164 -38.7524,-22.9037 -39.7852,-34.4848 5.9208,-1.0495 18.4357,-4.7611 39.0723,7.3946 2.1174,-0.885 -9.3509,-15.106 -5.7117,-21.606 9.1223,-16.2933 36.8678,-26.7141 53.6552,-16.1025 7.3311,4.634 8.0395,13.573 14.9414,15.7415 5.8525,1.8388 12.3029,-1.4979 18.0273,-3.7035 z"
       style="fill:#000000;fill-rule:evenodd;stroke:#000000;stroke-width:1px;stroke-linecap:butt;stroke-linejoin:miter;stroke-opacity:1"
       inkscape:label="#path3427" />
  </g>
  <g
     style="display:inline;opacity:1"
     transform="translate(-325.295,-515.85683)"
     id="g3429"
     inkscape:groupmode="layer"
     inkscape:label="9">
    <path
       style="fill:#000000;fill-rule:evenodd;stroke:#000000;stroke-width:1px;stroke-linecap:butt;stroke-linejoin:miter;stroke-opacity:1"
       d="m 2388.9901,1093.1752 c 9.5794,-6.0542 17.6598,-7.8391 22.8709,-9.0947 8.5988,-0.8397 13.9309,4.2007 19.2482,9.2677 4.2707,1.3928 12.0207,2.2886 12.1193,4.2774 0.6736,2.5806 -2.631,3.6311 -10.6935,2.8516 -25.2904,15.504 -44.5729,22.7934 -51.9249,37.9986 -2.8596,13.3344 -34.4109,17.7203 -68.7947,9.9806 -18.2888,-15.5751 -36.9701,-22.1908 -38.003,-33.7719 5.9209,-1.0495 51.9051,7.0262 41.5675,-2.2295 -37.0169,-33.1427 52.4886,-37.8652 62.0222,-41.3481 10.2935,-3.7606 2.0087,28.1226 11.588,22.0683 z"
       id="9"
       inkscape:connector-curvature="0"
       sodipodi:nodetypes="zcccccccssz"
       inkscape:label="#path3433" />
  </g>
  <g
     inkscape:label="10"
     inkscape:groupmode="layer"
     id="g3435"
     transform="translate(-325.295,-515.85683)"
     style="display:inline;opacity:1">
    <path
       sodipodi:nodetypes="scccccaccsss"
       inkscape:connector-curvature="0"
       id="10"
       d="m 588.41411,1097.836 c 7.70305,3.2887 18.43691,-7.238 23.64798,-8.4936 8.59887,-0.8398 13.93097,4.2006 19.24826,9.2677 4.27071,1.3928 12.0207,2.2886 12.11928,4.2774 0.67363,2.5806 -2.63105,3.631 -10.69348,2.8516 -21.29472,7.552 -38.51294,16.1935 -45.02445,32.3967 -4.3824,4.2705 -13.64919,5.8343 -20.91375,6.8623 -21.85199,3.0924 -36.04533,7.347 -66.16647,-2.3761 -17.73749,-4.7977 -28.1132,-1.8071 -29.19086,-13.9435 9.9991,-10.8283 55.16043,2.7322 45.4093,-8.5128 -43.68943,-50.3828 51.81306,-46.9944 61.66574,-44.5562 39.07081,9.6688 2.43944,19.0421 9.89845,22.2265 z"
       style="fill:#000000;fill-rule:evenodd;stroke:#000000;stroke-width:1px;stroke-linecap:butt;stroke-linejoin:miter;stroke-opacity:1"
       inkscape:label="#path3439" />
  </g>
  <g
     style="display:inline;opacity:1"
     transform="translate(-325.295,-515.85683)"
     id="g3441"
     inkscape:groupmode="layer"
     inkscape:label="11">
    <path
       style="fill:#000000;fill-rule:evenodd;stroke:#000000;stroke-width:1px;stroke-linecap:butt;stroke-linejoin:miter;stroke-opacity:1"
       d="m 2809.6426,947.21486 c 7.703,3.28863 18.4369,-7.23804 23.6479,-8.49363 8.5989,-0.83979 13.931,4.20061 19.2483,9.26768 4.2707,1.39281 12.0207,2.28857 12.1193,4.2774 0.6736,2.58058 -2.6311,3.63104 -10.6935,2.85159 -21.2947,7.55204 -38.5129,16.19349 -45.0244,32.39673 -4.3824,4.2705 -13.6492,5.8343 -20.9138,6.8623 -21.852,3.0924 -36.0453,7.34697 -66.1665,-2.3761 -17.7375,-4.7977 -28.1132,-1.8071 -29.1908,-13.94351 9.9991,-10.82832 55.1604,2.73223 45.4093,-8.51281 -43.6895,-50.38283 51.813,-46.9944 61.6657,-44.55617 39.0708,9.66879 2.4395,19.04208 9.8985,22.22652 z"
       id="11"
       inkscape:connector-curvature="0"
       sodipodi:nodetypes="scccccaccsss"
       inkscape:label="#path3443" />
  </g>
  <g
     inkscape:label="12"
     inkscape:groupmode="layer"
     id="g3445"
     transform="translate(-325.295,-515.85683)"
     style="display:inline;opacity:1">
    <path
       sodipodi:nodetypes="scccccaccsss"
       inkscape:connector-curvature="0"
       id="12"
       d="m 1044.828,1093.1182 c 8.0519,2.3063 17.395,-9.4723 22.4097,-11.3655 8.4279,-1.9014 14.3449,2.4376 20.2504,6.8049 4.4107,0.8515 12.2119,0.7776 12.5568,2.7388 0.989,2.4769 -2.1596,3.9297 -10.2564,4.1578 -20.1917,10.1389 -36.2031,20.8523 -40.6514,37.7389 -3.8179,4.7818 -12.8187,7.4846 -19.8993,9.4071 -21.2986,5.7829 -34.8535,11.7677 -65.94916,5.8616 -18.19608,-2.5571 -28.11993,1.6992 -30.69685,-10.2093 8.57653,-11.9866 55.07258,-4.1411 44.0001,-14.0878 -49.6097,-44.5653 45.57401,-53.0667 55.65331,-51.8713 39.9692,4.7405 4.786,18.5916 12.5828,20.8248 z"
       style="fill:#000000;fill-rule:evenodd;stroke:#000000;stroke-width:1px;stroke-linecap:butt;stroke-linejoin:miter;stroke-opacity:1"
       inkscape:label="#path3447" />
  </g>
  <g
     style="display:inline;opacity:1"
     transform="translate(-325.295,-515.85683)"
     id="g3453"
     inkscape:groupmode="layer"
     inkscape:label="13">
    <path
       style="fill:#000000;fill-rule:evenodd;stroke:#000000;stroke-width:1px;stroke-linecap:butt;stroke-linejoin:miter;stroke-opacity:1"
       d="m 1942.7519,1084.1493 c 8.3132,1.0213 15.7034,-12.0711 20.3612,-14.7238 8.0279,-3.1936 14.5495,0.1688 21.0643,3.5608 4.4895,0.1527 12.1836,-1.1379 12.8304,0.7455 1.3634,2.2922 -1.5198,4.2186 -9.4818,5.7076 -4.7199,3.3844 -9.3722,6.531 -13.1848,10.2105 -10.7067,10.3333 -16.6071,15.5178 -23.0946,26.3532 -3.0249,5.3191 -13.6843,13.3773 -21.7159,18.4468 -17.6635,11.1492 -27.0447,21.096 -57.1688,25.6606 -18.3722,0.3142 -29.0224,-2.5024 -33.4264,-13.8628 6.6007,-13.1782 53.7514,-12.6858 41.2622,-20.7824 -55.9573,-36.2764 20.0979,-62.0499 30.2402,-62.4422 40.2193,-1.5559 24.2642,20.1372 32.314,21.1262 z"
       id="13"
       inkscape:connector-curvature="0"
       sodipodi:nodetypes="sccccscaccsss"
       inkscape:label="#path3455" />
  </g>
  <g
     inkscape:label="14"
     inkscape:groupmode="layer"
     id="g3457"
     transform="translate(-325.295,-515.85683)"
     style="display:inline;opacity:1">
    <path
       sodipodi:nodetypes="sccccccccssss"
       inkscape:connector-curvature="0"
       id="14"
       d="m 1498.1564,1076.7415 c 8.3742,0.159 14.3757,-13.6254 18.7352,-16.744 7.656,-4.0039 14.4895,-1.3317 21.3192,1.3709 4.4813,-0.3109 12.0014,-2.3876 12.8388,-0.581 1.5925,2.1395 -1.0769,4.3529 -8.843,6.6546 -4.3459,3.8528 -8.6491,7.4621 -12.0622,11.515 -7.4344,23.1387 -9.8553,39.6658 -39.9545,49.1799 -16.1445,13.9263 -22.7099,29.3161 -52.2031,36.9613 -17.3899,-3.7587 -25.1296,-5.2911 -31.1485,-12.8644 5.2072,-13.7883 46.7085,-21.3741 33.3553,-27.949 -7.8416,-3.8611 -12.8436,-10.4989 -18.9473,-11.603 -72.5889,-13.1313 13.0442,-60.6726 42.5908,-53.6235 39.1506,9.3404 26.2104,17.5292 34.3193,17.6832 z"
       style="fill:#000000;fill-rule:evenodd;stroke:#000000;stroke-width:1px;stroke-linecap:butt;stroke-linejoin:miter;stroke-opacity:1"
       inkscape:label="#path3459" />
  </g>
  <g
     style="display:inline;opacity:1"
     transform="translate(-325.295,-515.85683)"
     id="g3461"
     inkscape:groupmode="layer"
     inkscape:label="15">
    <path
       style="fill:#000000;fill-rule:evenodd;stroke:#000000;stroke-width:1px;stroke-linecap:butt;stroke-linejoin:miter;stroke-opacity:1"
       d="m 2389.0071,922.60077 c 8.3575,-0.55116 13.1693,-14.79452 17.2489,-18.27136 7.2892,-4.63832 14.3245,-2.55476 21.3587,-0.44069 4.4388,-0.68951 11.7559,-3.396 12.7434,-1.66683 1.768,1.99683 -0.7042,4.42843 -8.2473,7.37999 -4.0038,4.20718 -7.9857,8.16819 -11.043,12.49577 -2.4039,10.45322 5.6339,16.01187 2.1547,23.93705 -4.4041,10.03212 -21.4934,21.73071 -37.7979,28.45175 -14.9064,15.24428 -22.6644,35.67195 -51.4037,45.78885 -17.6458,-2.2715 -22.967,-7.6793 -29.6061,-14.7153 4.02,-14.17997 44.7292,-25.25542 30.8669,-30.67509 -8.1406,-3.18271 -13.6767,-10.41536 -19.8625,-9.95564 -94.3584,7.01257 7.1404,-61.08271 37.8935,-57.03976 39.9061,5.24623 27.6017,15.24496 35.6944,14.71126 z"
       id="15"
       inkscape:connector-curvature="0"
       sodipodi:nodetypes="scccccscccssss"
       inkscape:label="#path3463" />
  </g>
  <g
     inkscape:label="16"
     inkscape:groupmode="layer"
     id="g3465"
     transform="translate(-325.295,-515.85683)"
     style="display:inline;opacity:1">
    <path
       sodipodi:nodetypes="scccccscccssss"
       inkscape:connector-curvature="0"
       id="16"
       d="m 1952.9718,922.46766 c 8.2971,-1.14473 12.0827,-15.69451 15.9045,-19.45295 6.9405,-5.14547 14.1062,-3.56805 21.2731,-1.96011 4.3785,-1.00376 11.4843,-4.22429 12.5924,-2.5698 1.9057,1.86589 -0.3872,4.46732 -7.701,7.94839 -3.6942,4.48154 -7.3839,8.71597 -10.1254,13.25022 -1.6536,10.59783 15.3063,10.53842 14.9434,19.18606 -0.5282,12.58801 -8.7518,44.76326 -46.7666,35.60726 -13.7833,16.2668 -20.0674,37.19497 -48.0135,49.33217 -17.7628,-1.0096 -23.4555,-6.0248 -30.5786,-12.5703 3.0003,-14.43027 42.8178,-28.37567 28.6048,-32.79473 -8.3465,-2.5951 -14.329,-8.88573 -20.5208,-8.51636 -113.4593,6.76839 -2.4004,-63.24699 33.7367,-59.59269 40.0451,4.0495 28.6168,13.24132 36.651,12.13284 z"
       style="fill:#000000;fill-rule:evenodd;stroke:#000000;stroke-width:1px;stroke-linecap:butt;stroke-linejoin:miter;stroke-opacity:1"
       inkscape:label="#path3467" />
  </g>
  <g
     style="display:inline;opacity:1"
     transform="translate(-325.295,-515.85683)"
     id="g3469"
     inkscape:groupmode="layer"
     inkscape:label="17">
    <path
       style="fill:#000000;fill-rule:evenodd;stroke:#000000;stroke-width:1px;stroke-linecap:butt;stroke-linejoin:miter;stroke-opacity:1"
       d="m 1508.4089,923.66866 c 8.1998,-1.70753 10.985,-16.48148 14.5417,-20.49164 6.5737,-5.60651 11.7703,-4.98375 19.0879,-5.61816 3.87,-2.28071 10.8315,-4.66399 12.388,-3.42201 2.3806,1.20231 -1.2226,2.92509 -7.1414,8.45474 -2.1661,5.38878 -4.7705,11.41174 -7.1966,16.12228 -0.9275,10.68589 11.7399,10.71523 16.2162,18.12304 9.7437,16.12453 16.083,53.41702 -44.2311,38.71169 -12.6427,17.16833 -17.486,38.4761 -44.5399,52.4897 -17.7903,0.2033 -23.8116,-4.4123 -31.3642,-10.4572 2.0099,-14.6011 40.7844,-31.22777 26.3033,-34.66787 -8.504,-2.02023 -11.9159,-15.20728 -18.0289,-14.15537 -136.4262,23.47597 -13.9858,-57.41551 26.5723,-54.696 40.1592,2.69276 29.4528,11.26024 37.3927,9.6068 z"
       id="17"
       inkscape:connector-curvature="0"
       sodipodi:nodetypes="scccccscccssss"
       inkscape:label="#path3471" />
  </g>
  <g
     inkscape:label="18"
     inkscape:groupmode="layer"
     id="g3473"
     transform="translate(-325.295,-515.85683)"
     style="display:inline;opacity:1">
    <path
       sodipodi:nodetypes="scccccscccssss"
       inkscape:connector-curvature="0"
       id="18"
       d="m 1043.8566,920.8749 c 8.0442,-2.3332 9.6847,-17.27761 12.9224,-21.54948 6.1229,-6.09554 9.8865,-2.21996 16.6756,-5.02303 5.6796,-2.26849 9.161,-6.50767 11.0187,-5.79056 2.6319,0.43171 -1.4159,3.35265 -5.4005,10.4048 -0.4475,5.79058 2.5818,13.22684 0.5252,18.11004 -0.1028,10.72557 6.187,7.98765 13.0254,13.29332 19.3696,15.02821 55.9179,69.17574 -41.1224,41.99926 -11.2847,18.08998 -7.4172,44.74805 -33.3131,60.80115 -17.7219,1.5712 -27.6091,-3.5758 -35.60434,-9.0218 0.88088,-14.7126 34.73284,-38.30517 20.03004,-40.62125 -8.63417,-1.36012 -12.86183,-12.66185 -19.06434,-12.72664 -141.7212,-1.48044 -19.26266,-60.42169 22.28634,-56.5779 40.0783,3.70772 30.2317,8.96137 38.021,6.70209 z"
       style="fill:#000000;fill-rule:evenodd;stroke:#000000;stroke-width:1px;stroke-linecap:butt;stroke-linejoin:miter;stroke-opacity:1"
       inkscape:label="#path3475" />
  </g>
  <g
     style="display:inline;opacity:1"
     transform="translate(-325.295,-515.85683)"
     id="g3477"
     inkscape:groupmode="layer"
     inkscape:label="19">
    <path
       style="fill:#000000;fill-rule:evenodd;stroke:#000000;stroke-width:1px;stroke-linecap:butt;stroke-linejoin:miter;stroke-opacity:1"
       d="m 2360.5253,738.38489 c 7.8915,-2.80656 17.064,-13.99279 20.0425,-18.44931 5.7503,-6.44823 7.0805,-4.16454 12.5675,-9.0474 4.6154,-4.01266 5.8137,-8.63827 7.804,-8.57307 2.6272,-0.45927 1.478,3.80527 0.039,11.77635 1.4848,5.61484 1.7961,14.84611 3.0629,19.84277 0.534,10.71276 9.2718,9.81673 17.3201,13.00084 10.5507,4.17413 23.7604,16.4718 35.5039,24.73631 32.8726,23.13423 57.6258,47.96805 -14.5336,32.36459 -11.2279,-2.42788 -27.5322,0.70396 -49.5467,-2.04132 -10.191,18.7279 -9.6876,38.44876 -34.585,56.01057 -17.5974,2.62033 -30.2931,2.10205 -38.5975,-2.85976 0.01,-14.73886 29.8775,-48.36478 15.0631,-49.80407 -8.6997,-0.84522 -34.2654,-18.04079 -40.4541,-17.62175 -141.984,9.61385 -18.3963,-56.9673 27.9626,-49.73546 13.1018,1.70679 17.2367,-0.0978 38.3517,0.40071 z"
       id="19"
       inkscape:connector-curvature="0"
       sodipodi:nodetypes="ccccccssscccsscc"
       inkscape:label="#path3479" />
  </g>
  <g
     inkscape:label="20"
     inkscape:groupmode="layer"
     id="g3481"
     transform="translate(-325.295,-515.85683)"
     style="display:inline;opacity:1">
    <path
       sodipodi:nodetypes="ccccccsccccssccc"
       inkscape:connector-curvature="0"
       id="20"
       d="m 537.30139,917.166 c 7.89148,-2.80656 14.54784,-10.08211 16.53262,-15.06132 4.28093,-7.50463 6.05767,-5.54813 10.40707,-11.46687 3.67836,-4.88609 5.77715,-10.28996 7.73729,-10.64078 2.47389,-0.99647 0.34797,4.04401 0.60055,12.14008 7.45397,4.92804 5.87631,14.09221 7.12921,18.76943 2.75387,10.36651 17.9208,12.40866 26.08293,15.28841 31.12754,10.98238 150.59358,68.29028 59.08526,57.55757 -5.83092,-0.31678 -59.86048,17.75138 -101.20673,5.48101 -10.19096,18.72787 4.9268,37.95517 -9.27706,51.95247 -17.59743,2.6204 -42.05596,-1.8189 -50.36036,-6.7807 0.006,-14.7389 29.87745,-48.36477 15.06313,-49.80403 -8.69971,-0.84522 -29.98369,-9.0743 -36.17671,-9.42341 -136.71258,-7.70678 -28.40041,-70.2823 17.26905,-60.7854 17.09123,2.74662 26.35976,3.17347 37.11375,2.7735 z"
       style="fill:#000000;fill-rule:evenodd;stroke:#000000;stroke-width:1px;stroke-linecap:butt;stroke-linejoin:miter;stroke-opacity:1"
       inkscape:label="#path3483" />
  </g>
  <g
     style="display:inline;opacity:1"
     transform="translate(-325.295,-515.85683)"
     id="g3485"
     inkscape:groupmode="layer"
     inkscape:label="21">
    <path
       style="fill:#000000;fill-rule:evenodd;stroke:#000000;stroke-width:1px;stroke-linecap:butt;stroke-linejoin:miter;stroke-opacity:1"
       d="m 2773.1189,737.17285 c 7.8914,-2.80656 14.5478,-10.08211 16.5326,-15.06132 4.2809,-7.50463 6.0576,-5.54813 10.407,-11.46687 3.6784,-4.88609 5.7772,-10.28996 7.7373,-10.64078 2.4739,-0.99647 0.348,4.04401 0.6006,12.14008 7.454,4.92804 5.8763,14.09221 7.1292,18.76943 2.7539,10.36651 17.9208,12.40866 26.0829,15.28841 31.1276,10.98238 116.2337,63.04641 26.3191,42.93879 -12.7135,-2.84311 -45.352,18.36188 -68.4405,13.54659 -10.191,18.7279 4.9268,44.5084 -9.2771,58.50571 -17.5974,2.62033 -42.056,-1.81889 -50.3604,-6.7807 0.01,-14.73886 29.3734,-56.43031 14.5591,-57.8696 -8.6997,-0.84522 -27.9673,-9.57839 -34.1604,-9.92751 -34.0344,-1.87867 -64.9085,15.03821 -69.6531,4.91608 -7.8265,-16.69719 23.3125,-52.50017 71.7993,-58.64414 17.0913,2.74662 39.9704,4.68576 50.7244,4.28579 z"
       id="21"
       inkscape:connector-curvature="0"
       sodipodi:nodetypes="ccccccsscccscsccc"
       inkscape:label="#path3487" />
  </g>
  <g
     inkscape:label="22"
     inkscape:groupmode="layer"
     id="g3489"
     transform="translate(-325.295,-515.85683)"
     style="display:inline;opacity:1">
    <path
       sodipodi:nodetypes="ccccccsscccscsccc"
       inkscape:connector-curvature="0"
       id="22"
       d="m 1919.5879,737.17285 c 7.8915,-2.80656 14.5479,-10.08211 16.5327,-15.06132 4.2809,-7.50463 6.0576,-5.54813 10.407,-11.46687 3.6784,-4.88609 5.7772,-10.28996 7.7373,-10.64078 2.4739,-0.99647 0.348,4.04401 0.6006,12.14008 7.4539,4.92804 6.3804,24.67822 7.6333,29.35544 9.8112,6.83784 31.4602,1.52876 39.6935,4.1983 32.0901,10.40486 107.2763,60.45614 12.2044,43.44289 -12.8238,-2.29484 -45.352,18.36188 -68.4406,13.54659 -10.1909,18.7279 4.9268,44.5084 -9.277,58.50571 -17.5975,2.62033 -42.056,-1.81889 -50.3604,-6.7807 0.01,-14.73886 29.3734,-56.43031 14.559,-57.8696 -8.6997,-0.84522 -25.9509,-20.1644 -32.1439,-20.51352 -34.0345,-1.87867 -93.836,29.69482 -93.3456,18.52666 1.7513,-39.88558 41.46,-64.59846 89.9467,-70.74243 17.0913,2.74662 43.499,13.75948 54.253,13.35951 z"
       style="fill:#000000;fill-rule:evenodd;stroke:#000000;stroke-width:1px;stroke-linecap:butt;stroke-linejoin:miter;stroke-opacity:1"
       inkscape:label="#path3491" />
  </g>
  <g
     style="display:inline;opacity:1"
     transform="translate(-325.295,-515.85683)"
     id="g3493"
     inkscape:groupmode="layer"
     inkscape:label="23">
    <path
       style="fill:#000000;fill-rule:evenodd;stroke:#000000;stroke-width:1px;stroke-linecap:butt;stroke-linejoin:miter;stroke-opacity:1"
       d="m 1022.5146,736.5433 c 7.8915,-2.80656 14.5478,-10.08211 16.5326,-15.06132 4.2809,-7.50463 9.5863,-6.80837 13.9357,-12.72711 3.6784,-4.88609 7.5415,-10.28996 9.5017,-10.64078 2.4739,-0.99647 -1.4164,4.04401 -1.1638,12.14008 7.454,4.92804 2.8517,25.93846 4.1046,30.61568 9.8112,6.83784 49.5823,9.60663 57.7545,12.45779 32.647,11.39013 128.9778,98.85101 12.2044,43.44289 -11.7698,-5.58467 -63.413,10.10239 -86.5015,5.2871 -17.5106,37.8715 4.4981,45.62951 -9.2771,58.50571 -16.6087,8.05818 -41.79182,-0.36602 -50.36038,-6.7807 0.006,-14.73886 29.37338,-56.43031 14.55908,-57.8696 -8.69976,-0.84522 -54.28779,-33.72431 -60.48081,-34.07343 -34.03448,-1.87867 -106.10619,26.52135 -101.95107,16.14333 13.34551,-33.33234 50.06542,-62.21513 98.5522,-68.3591 17.09123,2.74662 71.83588,27.31939 82.58988,26.91942 z"
       id="23"
       inkscape:connector-curvature="0"
       sodipodi:nodetypes="ccccccsscccscsccc"
       inkscape:label="#path3495" />
  </g>
  <g
     inkscape:label="24"
     inkscape:groupmode="layer"
     id="g4182"
     transform="translate(-325.295,-515.85683)"
     style="display:inline;opacity:1">
    <path
       sodipodi:nodetypes="ccccccscscccscsccc"
       inkscape:connector-curvature="0"
       id="24"
       d="m 547.17084,736.5433 c 7.89148,-2.80656 14.54784,-10.08211 16.53262,-15.06132 4.28093,-7.50463 9.58634,-6.80837 13.93574,-12.72711 3.67836,-4.88609 7.54148,-10.28996 9.50162,-10.64078 2.47389,-0.99647 -1.41636,4.04401 -1.16378,12.14008 7.45397,4.92804 2.85174,25.93846 4.10464,30.61568 9.8112,6.83784 66.79252,0.21383 74.4761,4.1983 61.49516,31.88954 71.91937,45.82149 87.85061,65.60354 -10.18651,12.79193 -51.65353,8.20719 -91.2732,-10.56645 -11.77272,-5.57846 -64.5076,6.76768 -87.59615,1.95239 -17.51057,37.8715 4.49814,45.62951 -9.27706,58.50571 -16.60873,8.05818 -41.7918,-0.36602 -50.36036,-6.7807 0.006,-14.73886 29.37335,-56.43031 14.55903,-57.8696 -8.69971,-0.84522 -53.67617,-33.77498 -59.86919,-34.1241 -34.03448,-1.87867 -111.24907,28.36876 -105.948,18.52666 19.65138,-36.48528 55.02723,-65.08089 102.54913,-70.74243 17.09123,2.74662 71.22426,27.37006 81.97825,26.97009 z"
       style="fill:#000000;fill-rule:evenodd;stroke:#000000;stroke-width:1px;stroke-linecap:butt;stroke-linejoin:miter;stroke-opacity:1"
       inkscape:label="#path4184" />
  </g>
  <g
     style="display:inline;opacity:1"
     transform="translate(-325.295,-515.85683)"
     id="g4186"
     inkscape:groupmode="layer"
     inkscape:label="25">
    <path
       style="fill:#000000;fill-rule:evenodd;stroke:#000000;stroke-width:1px;stroke-linecap:butt;stroke-linejoin:miter;stroke-opacity:1"
       d="m 1461.282,736.5433 c 7.8915,-2.80656 14.5478,-10.08211 16.5326,-15.06132 4.2809,-7.50463 9.5864,-6.80837 13.9358,-12.72711 3.6783,-4.88609 7.5414,-10.28996 9.5016,-10.64078 2.4739,-0.99647 -1.4164,4.04401 -1.1638,12.14008 7.454,4.92804 2.8517,25.93846 4.1046,30.61568 9.8112,6.83784 48.031,0.72801 56.3287,3.19011 59.1031,17.53719 81.402,42.2256 89.3629,71.14859 -15.2275,0.18954 -45.1003,-10.44434 -84.72,-29.21799 -11.7727,-5.57846 -54.4257,20.88236 -77.5142,16.06707 -17.5106,37.8715 4.4981,45.62951 -9.2771,58.50571 -16.6087,8.05818 -41.7918,-0.36602 -50.3603,-6.7807 0.01,-14.73886 29.3733,-56.43031 14.559,-57.8696 -8.6997,-0.84522 -43.5943,-28.73402 -49.7873,-29.08314 -34.0345,-1.87867 -102.5417,32.93744 -98.3865,22.55942 13.3455,-33.33234 46.5009,-68.63122 94.9877,-74.77519 17.0912,2.74662 61.1423,22.3291 71.8963,21.92913 z"
       id="25"
       inkscape:connector-curvature="0"
       sodipodi:nodetypes="ccccccscscccscsccc"
       inkscape:label="#path4188" />
  </g>
  <g
     inkscape:label="26"
     inkscape:groupmode="layer"
     id="g4190"
     transform="translate(-325.295,-515.85683)"
     style="display:inline;opacity:1">
    <path
       sodipodi:nodetypes="ccccccscscccscsccc"
       inkscape:connector-curvature="0"
       id="26"
       d="m 2766.9188,554.50583 c 7.8915,-2.80656 14.5478,-10.08211 16.5326,-15.06132 4.2809,-7.50463 9.5863,-6.80837 13.9357,-12.72711 3.6784,-4.88609 7.5415,-10.28996 9.5017,-10.64078 2.4738,-0.99647 -1.4164,4.04401 -1.1638,12.14008 7.4539,4.92804 2.8517,25.93846 4.1046,30.61568 9.8112,6.83784 60.6334,-0.78428 68.9311,1.67782 59.1031,17.53719 50.6189,28.8841 96.9243,79.71822 -15.2275,0.18954 -60.7273,-7.41977 -100.3469,-26.19342 -11.7727,-5.57846 -58.9626,10.80045 -82.0511,5.98516 -17.5106,37.8715 4.4981,45.62951 -9.2771,58.50571 -16.6087,8.05818 -41.7918,-0.36602 -50.3603,-6.7807 0.01,-14.73886 29.3733,-56.43031 14.559,-57.8696 -8.6997,-0.84522 -46.6188,-22.68487 -52.8119,-23.03399 -34.0344,3.03623 -120.1285,17.65888 -114.0135,6.93245 21.2111,-37.20698 65.1525,-59.0534 113.6392,-65.19737 17.0913,2.74662 61.1424,22.3291 71.8964,21.92913 z"
       style="fill:#000000;fill-rule:evenodd;stroke:#000000;stroke-width:1px;stroke-linecap:butt;stroke-linejoin:miter;stroke-opacity:1"
       inkscape:label="#path4192" />
  </g>
  <g
     style="display:inline;opacity:1"
     transform="translate(-325.295,-515.85683)"
     id="g4194"
     inkscape:groupmode="layer"
     inkscape:label="27">
    <path
       style="fill:#000000;fill-rule:evenodd;stroke:#000000;stroke-width:1px;stroke-linecap:butt;stroke-linejoin:miter;stroke-opacity:1"
       d="m 1467.7771,554.50583 c 7.8915,-2.80656 14.5478,-10.08211 16.5326,-15.06132 4.281,-7.50463 9.5864,-6.80837 13.9358,-12.72711 3.6783,-4.88609 7.5414,-10.28996 9.5016,-10.64078 2.4739,-0.99647 -1.4164,4.04401 -1.1638,12.14008 7.454,4.92804 2.8517,25.93846 4.1046,30.61568 9.8112,6.83784 60.6334,-0.78428 68.9311,1.67782 59.1031,17.53719 57.6762,34.93325 103.9817,85.76737 -15.2275,0.18954 -57.1986,9.21538 -96.8183,-9.55827 -11.7727,-5.57846 -68.5404,-5.33061 -91.6289,-10.1459 -17.5106,37.8715 3.4899,39.07627 -10.2853,51.95247 -16.6087,8.05818 -41.7918,-0.36602 -50.3603,-6.7807 0.01,-14.73886 29.3733,-56.43031 14.559,-57.8696 -8.6997,-0.84522 -71.8236,-28.22992 -78.0166,-28.57904 -57.6038,20.71323 -112.114,7.99327 -110.989,-3.65356 26.9811,-33.26098 87.6098,-66.7907 131.7867,-57.13184 17.0912,2.74662 65.1751,30.39463 75.9291,29.99466 z"
       id="27"
       inkscape:connector-curvature="0"
       sodipodi:nodetypes="ccccccscscccsccccc"
       inkscape:label="#path4196" />
  </g>
  <g
     inkscape:label="28"
     inkscape:groupmode="layer"
     id="g4198"
     transform="translate(-325.295,-515.85683)"
     style="display:inline;opacity:1">
    <path
       sodipodi:nodetypes="ccccccscscccsccccc"
       inkscape:connector-curvature="0"
       id="28"
       d="m 2348.6429,554.50583 c 7.8915,-2.80656 14.5478,-10.08211 16.5326,-15.06132 4.2809,-7.50463 9.5863,-6.80837 13.9357,-12.72711 3.6784,-4.88609 7.5415,-10.28996 9.5017,-10.64078 2.4738,-0.99647 -1.4164,4.04401 -1.1638,12.14008 7.4539,4.92804 2.8517,25.93846 4.1046,30.61568 9.8112,6.83784 60.6334,-0.78428 68.9311,1.67782 59.1031,17.53719 57.6762,34.93325 103.9816,85.76737 -15.2274,0.18954 -58.4918,0.73178 -97.8264,-18.63199 -8.7255,-4.29544 -47.5584,12.15314 -90.6207,-1.07218 -17.5106,37.8715 3.4899,39.07627 -10.2853,51.95247 -16.6087,8.05818 -41.7918,-0.36602 -50.3603,-6.7807 0.01,-14.73886 29.3733,-56.43031 14.559,-57.8696 -8.6997,-0.84522 -71.3195,-33.77497 -77.5125,-34.12409 -57.6039,20.71323 -101.528,18.57928 -100.403,6.93245 26.9811,-33.26099 80.5524,-63.76613 124.7293,-54.10727 17.0913,2.74662 61.1424,22.3291 71.8964,21.92913 z"
       style="fill:#000000;fill-rule:evenodd;stroke:#000000;stroke-width:1px;stroke-linecap:butt;stroke-linejoin:miter;stroke-opacity:1"
       inkscape:label="#path4200" />
  </g>
  <g
     style="display:inline;opacity:1"
     transform="translate(-325.295,-515.85683)"
     id="g4202"
     inkscape:groupmode="layer"
     inkscape:label="29">
    <path
       style="fill:#000000;fill-rule:evenodd;stroke:#000000;stroke-width:1px;stroke-linecap:butt;stroke-linejoin:miter;stroke-opacity:1"
       d="m 1903.9271,554.90599 c 7.8915,-2.80656 14.5479,-10.08211 16.5327,-15.06132 4.2809,-7.50463 9.5863,-6.80837 13.9357,-12.72711 3.6784,-4.88609 7.5415,-10.28996 9.5016,-10.64078 2.4739,-0.99647 -1.4163,4.04401 -1.1638,12.14008 7.454,4.92804 2.8518,25.93846 4.1047,30.61568 9.8112,6.83784 60.6334,-0.78428 68.931,1.67782 59.1031,17.53719 73.3032,26.36363 119.6087,77.19775 -15.2275,0.18954 -74.1188,9.3014 -113.4534,-10.06237 -8.7256,-4.29544 -47.5584,12.15314 -90.6208,-1.07218 -17.5105,37.8715 3.49,39.07627 -10.2852,51.95247 -16.6087,8.05818 -46.3287,-5.40698 -54.8972,-11.82166 0.01,-14.73886 33.9635,-53.52845 19.0959,-52.82864 -8.346,0.39284 -80.8318,-26.48815 -89.1068,-34.12409 -57.6038,20.71323 -96.9911,-2.08864 -95.8661,-13.73547 26.9811,-33.26099 88.1139,-49.65145 132.2908,-39.99259 17.0912,2.74662 60.6383,28.88234 71.3922,28.48237 z"
       id="29"
       inkscape:connector-curvature="0"
       sodipodi:nodetypes="ccccccscscccsccccc"
       inkscape:label="#path4204" />
  </g>
  <g
     transform="translate(-325.295,-515.85683)"
     id="g3357"
     inkscape:groupmode="layer"
     inkscape:label="30"
     style="display:inline;opacity:1">
    <path
       sodipodi:nodetypes="cccsssccccccccccc"
       inkscape:connector-curvature="0"
       id="30"
       d="m 342.64608,578.49645 c 31.89115,-14.76718 49.52762,-62.63932 125.91844,-59.08311 26.43839,17.6388 68.4383,35.00207 89.64297,29.08914 9.72403,-8.5839 19.21735,-15.82977 28.32153,-25.06849 4.26184,-4.32481 4.66065,-1.89716 5.51594,-3.16335 5.11056,-7.56582 6.00611,-4.483 4.5063,1.34642 -0.62632,2.43438 0.43207,1.43732 1.62001,6.06903 1.3108,12.39901 -1.08444,23.63587 -4.02931,35.51848 29.35715,-3.23857 69.90728,-2.33371 69.90728,-2.33371 63.79089,21.8516 40.48929,21.46629 108.41916,82.27711 -25.91935,22.28322 -47.50452,-5.768 -93.96792,-10.45716 -38.69688,6.55741 -66.12844,4.88336 -99.6071,-4.21388 -5.40711,-5.52748 -8.43898,3.1965 -5.84316,45.68659 -20.462,15.15919 -35.30171,5.01805 -50.5825,-3.13822 5.33734,-21.20015 20.35237,-56.91684 11.32736,-56.57348 -32.87521,-8.4795 -65.08954,-18.06049 -90.06402,-39.70787 -32.79888,24.07579 -70.36548,28.53876 -101.08498,3.7525 z"
       style="fill:#000000;fill-rule:evenodd;stroke:#000000;stroke-width:1px;stroke-linecap:butt;stroke-linejoin:miter;stroke-opacity:1"
       inkscape:label="#path3359" />
  </g>
  <g
     inkscape:label="31"
     inkscape:groupmode="layer"
     id="layer1"
     transform="translate(-325.295,-515.85683)"
     style="display:inline;opacity:1">
    <path
       style="fill:#000000;fill-rule:evenodd;stroke:#000000;stroke-width:1px;stroke-linecap:butt;stroke-linejoin:miter;stroke-opacity:1"
       d="m 789.14848,545.12058 c 31.89115,-14.76718 64.44025,-29.26345 140.83107,-25.70724 26.43839,17.6388 52.81555,35.00207 74.02025,29.08914 9.724,-8.5839 19.2174,-15.82977 28.3216,-25.06849 4.2618,-4.32481 4.6606,-1.89716 5.5159,-3.16335 5.1106,-7.56582 6.0061,-4.483 4.5063,1.34642 -0.6263,2.43438 0.4321,1.43732 1.62,6.06903 1.3108,12.39901 -1.0844,23.63587 -4.0293,35.51848 29.3571,6.74201 81.2693,-6.59446 81.2693,-6.59446 63.7909,21.8516 53.2715,15.07517 121.2014,75.88599 6.4392,7.82437 -4.5391,8.95184 -59.3355,6.12655 l -47.4147,-14.45334 c -38.6969,6.55741 -77.4904,13.40486 -110.9691,4.30762 -5.4071,-5.52748 -8.439,3.1965 -5.8431,45.68659 -20.4621,15.15919 -35.30181,5.01805 -50.5826,-3.13822 5.33734,-21.20015 20.35237,-56.91684 11.32736,-56.57348 -32.87521,-8.4795 -65.08954,-18.06049 -90.06402,-39.70787 l -52.19955,-2.00853 C 817.6305,570.80019 803.67583,557.3877 789.14848,545.12058 Z"
       id="31"
       inkscape:connector-curvature="0"
       sodipodi:nodetypes="cccsssccccccccccccc"
       inkscape:label="#path3336" />
  </g>
</svg>
