<?xml version="1.0" encoding="UTF-8" standalone="no"?>
<!-- Created with Inkscape (http://www.inkscape.org/) -->

<svg
   xmlns:dc="http://purl.org/dc/elements/1.1/"
   xmlns:cc="http://creativecommons.org/ns#"
   xmlns:rdf="http://www.w3.org/1999/02/22-rdf-syntax-ns#"
   xmlns:svg="http://www.w3.org/2000/svg"
   xmlns="http://www.w3.org/2000/svg"
   xmlns:sodipodi="http://sodipodi.sourceforge.net/DTD/sodipodi-0.dtd"
   xmlns:inkscape="http://www.inkscape.org/namespaces/inkscape"
   sodipodi:docname="bird.svg"
   inkscape:version="0.91 r13725"
   version="1.1"
   id="svg2"
   viewBox="0 0 456.31768 167.18384"
   height="47.182995mm"
   width="128.78299mm">
  <defs
     id="defs4" />
  <sodipodi:namedview
     inkscape:window-maximized="0"
     inkscape:window-y="18"
     inkscape:window-x="0"
     inkscape:window-height="729"
     inkscape:window-width="1362"
     fit-margin-bottom="0"
     fit-margin-right="0"
     fit-margin-left="0"
     fit-margin-top="0"
     showgrid="false"
     inkscape:current-layer="g3441"
     inkscape:document-units="px"
     inkscape:cy="1839.1749"
     inkscape:cx="3803.4408"
     inkscape:zoom="0.061992216"
     inkscape:pageshadow="2"
     inkscape:pageopacity="0.0"
     borderopacity="1.0"
     bordercolor="#666666"
     pagecolor="#ffffff"
     id="base" />
  <metadata
     id="metadata7">
    <rdf:RDF>
      <cc:Work
         rdf:about="">
        <dc:format>image/svg+xml</dc:format>
        <dc:type
           rdf:resource="http://purl.org/dc/dcmitype/StillImage" />
        <dc:title />
      </cc:Work>
    </rdf:RDF>
  </metadata>
  <g
     inkscape:label="0"
     inkscape:groupmode="layer"
     id="g3387"
     transform="translate(-325.295,-515.85683)"
     style="display:inline;opacity:1">
    <path
       sodipodi:nodetypes="cccccccccccc"
       inkscape:connector-curvature="0"
       id="0"
       d="m -1260.9562,-85.866619 c 3.2329,-9.1684 8.3341,-10.8637 13.5451,-12.1193 8.5989,-0.8397 13.9311,4.2007 19.2483,9.2677 4.2707,1.3928 12.0207,2.2886 12.1194,4.2774 0.6736,2.5806 -2.6312,3.6311 -10.6936,2.8516 -0.2665,24.0325 -18.1084,35.3315 -17.6285,59.242297 -9.7926,-1.8926 -7.6371,-13.070401 -39.9223,-2.8516 -34.7998,9.704 -41.479,4.4105 -48.4772,-0.7129 -3.6743,-25.573297 -26.633,-28.058197 -27.6659,-43.039597 5.921,-1.0495 19.0659,0.7728 39.7024,12.9285 23.2424,-12.1691 29.7975,-5.6871 43.5696,-4.1081 z"
       style="fill:#000000;fill-rule:evenodd;stroke:#000000;stroke-width:1px;stroke-linecap:butt;stroke-linejoin:miter;stroke-opacity:1"
       inkscape:label="#path3391" />
  </g>
  <g
     style="display:inline;opacity:1"
     transform="translate(-325.295,-515.85683)"
     id="g4229"
     inkscape:groupmode="layer"
     inkscape:label="1">
    <path
       style="fill:#000000;fill-rule:evenodd;stroke:#000000;stroke-width:1px;stroke-linecap:butt;stroke-linejoin:miter;stroke-opacity:1"
       d="m -944.98341,-6.0219629 c 3.2329,-9.1684001 8.334,-10.8637001 13.5451,-12.1193001 8.5989,-0.8397 13.931,4.2007 19.2483,9.2677001 4.2707,1.3928 12.0207,2.2886 12.1192,4.2774 0.6737,2.5806 -2.631,3.63109995 -10.6934,2.8516 -0.2666,24.0324999 -18.1084,35.3314999 -17.6285,59.2422999 -9.7926,-1.8926 -7.6372,-13.0704 -39.9224,-2.8516 -34.79979,9.704 -41.47899,4.4105 -48.47719,-0.7129 -3.6744,-25.5733 -26.6331,-28.0582 -27.6659,-43.0396 5.9208,-1.0494999 19.0658,0.7728 39.7024,12.9285 27.97739,-26.1244999 34.08829,-18.3331999 43.56969,-4.1081 z"
       id="1"
       inkscape:connector-curvature="0"
       sodipodi:nodetypes="cccccccccccc"
       inkscape:label="#path4231" />
  </g>
  <g
     style="display:inline;opacity:1"
     transform="translate(-325.295,-515.85683)"
     id="g4225"
     inkscape:groupmode="layer"
     inkscape:label="2">
    <path
       style="fill:#000000;fill-rule:evenodd;stroke:#000000;stroke-width:1px;stroke-linecap:butt;stroke-linejoin:miter;stroke-opacity:1"
       d="m -629.01082,-6.0219629 c 3.2329,-9.1684001 8.334,-10.8637001 13.5451,-12.1193001 8.5989,-0.8397 13.931,4.2007 19.2482,9.2677001 4.2708,1.3928 12.0207,2.2886 12.1193,4.2774 0.6737,2.5806 -2.631,3.63109995 -10.6935,2.8516 -0.2665,24.0324999 -18.1083,35.3314999 -17.6285,59.2422999 -9.7926,-1.8926 -7.6371,-13.0704 -39.9223,-2.8516 -34.7997,9.704 -41.4789,4.4105 -48.4771,-0.7129 -3.6744,-25.5733 -26.6331,-28.0582 -27.6659,-43.0396 5.9208,-1.0494999 19.0658,0.7728 39.7024,12.9285 1.8931,-0.4612 -2.6778,-8.1627 -7.6378,-9.9173 -33.0072,-11.6757999 25.9866,-26.3598 43.8707,-18.9762999 8.0166,3.3096 -1.578,23.9977999 7.3367,24.7854999 z"
       id="2"
       inkscape:connector-curvature="0"
       sodipodi:nodetypes="ccccccccccsscc"
       inkscape:label="#path4227" />
  </g>
  <g
     style="display:inline;opacity:1"
     transform="translate(-325.295,-515.85683)"
     id="g3393"
     inkscape:groupmode="layer"
     inkscape:label="3">
    <path
       style="fill:#000000;fill-rule:evenodd;stroke:#000000;stroke-width:1px;stroke-linecap:butt;stroke-linejoin:miter;stroke-opacity:1"
       d="m -309.0055,15.624197 c 3.2329,-9.1683999 8.334,-10.8636999 13.5451,-12.1192999 8.5989,-0.8398 13.931,4.2006 19.2483,9.2676999 4.2707,1.3928 12.0207,2.2886 12.1193,4.2774 0.6736,2.5806 -2.6311,3.631 -10.6935,2.8516 -15.0777,20.1276 -18.1777,29.1621 -25.6941,48.1521 -9.7926,-1.8926 -7.6371,-13.0704 -39.9223,-2.8516 -34.7997,9.7041 -41.4789,4.4106 -48.4771,-0.7129 -3.6744,-25.5732 -26.6331,-28.0581 -27.6659,-43.0395 5.9208,-1.0495 18.4357,1.6549 39.0723,13.8107 2.1174,-0.885 -5.4955,-35.75219995 -5.4955,-35.75219995 -60.8646,-2.78739995 18.2425,-32.67190005 41.3503,-8.13829995 5.9465,6.3134 -0.5698,38.1124999 8.3449,38.9001999 z"
       id="3"
       inkscape:connector-curvature="0"
       sodipodi:nodetypes="ccccccccccsscc"
       inkscape:label="#path3397" />
  </g>
  <g
     inkscape:label="4"
     inkscape:groupmode="layer"
     id="g3399"
     transform="translate(-325.295,-515.85683)"
     style="display:inline;opacity:1">
    <path
       sodipodi:nodetypes="ccccccccccsscc"
       inkscape:connector-curvature="0"
       id="4"
       d="m 9.7397226,32.907617 c 3.2329004,-9.1685 6.3177004,-11.8719 11.5286994,-13.1275 8.5989,-0.8398 13.931,4.2006 19.2483,9.2677 4.2707,1.3928 12.0207,2.2885 12.1193,4.2774 0.6736,2.5806 -2.6311,3.631 -10.6935,2.8516 -25.290499,15.504 -26.626899,30.5636 -27.206299,52.1849 -9.7926004,-1.8926 -7.6371004,-13.0704 -39.922401,-2.8516 -34.79973,9.704 -41.47894,4.4105 -48.47713,-0.7129 -3.67437,-25.5732 -26.633072,-28.0582 -27.665902,-43.0396 5.92083,-1.0495 18.435692,1.655 39.072282,13.8107 2.11745,-0.885 -5.49543,-35.7522 -5.49543,-35.7522 -50.143722,-63.5391 18.47348,-33.9811 41.35028,-8.1383 5.7487,6.494 -0.5698,38.1125 8.3449,38.9002 9.2284003,-5.9107 12.2798003,-9.0893 27.7969006,-17.6704 z"
       style="fill:#000000;fill-rule:evenodd;stroke:#000000;stroke-width:1px;stroke-linecap:butt;stroke-linejoin:miter;stroke-opacity:1"
       inkscape:label="#path3403" />
  </g>
  <g
     style="display:inline;opacity:1"
     transform="translate(-325.295,-515.85683)"
     id="g3405"
     inkscape:groupmode="layer"
     inkscape:label="5">
    <path
       style="fill:#000000;fill-rule:evenodd;stroke:#000000;stroke-width:1px;stroke-linecap:butt;stroke-linejoin:miter;stroke-opacity:1"
       d="m 322.32616,59.553007 c 7.06,-6.6834 9.7039,-9.9114 14.9149,-11.167 8.5989,-0.8398 13.931,4.2006 19.2483,9.2677 4.2707,1.3928 12.0207,2.2885 12.1193,4.2774 0.6736,2.5805 -2.6311,3.631 -10.6935,2.8515 -25.2905,15.5041 -20.9237,34.1282 -28.2757,49.333403 -23.6488,-1.2565 -42.828,3.4757 -75.2108,-2.8516 -18.2888,-20.226503 -38.75233,-25.919503 -39.78523,-40.900903 5.9209,-1.0495 18.43573,1.6549 39.07233,13.8107 2.1174,-0.885 3.4158,-38.6038 3.4158,-38.6038 -38.84863,-119.2617 17.8134,-40.9192999 39.2116,-7.7819 4.7048,7.2859 -7.3424,40.6077 1.5723,41.3954 9.2284,-5.9107 11.5335,-7.4409 24.4107,-19.6309 z"
       id="5"
       inkscape:connector-curvature="0"
       sodipodi:nodetypes="sccccccccsscs"
       inkscape:label="#path3409" />
  </g>
  <g
     inkscape:label="6"
     inkscape:groupmode="layer"
     id="g3411"
     transform="translate(-325.295,-515.85683)"
     style="display:inline;opacity:1">
    <path
       sodipodi:nodetypes="accccccccssca"
       inkscape:connector-curvature="0"
       id="6"
       d="m 638.65514,29.221697 c 5.7653,-3.8146 12.3773,-9.7332 17.5883,-10.9888 8.5989,-0.8398 13.931,4.2006 19.2483,9.2677 4.2707,1.3928 12.0207,2.2885 12.1193,4.2774 0.6736,2.5805 -2.6311,3.631 -10.6935,2.8516 -25.2905,15.504 -26.9833,33.7716 -34.3353,48.9768 -23.6489,-1.2565 -42.828,3.4757 -75.2108,-2.8516 -18.2888,-20.2265 -38.7524,-19.5034 -39.7853,-34.4847 5.9209,-1.0495 18.4358,-4.7612 39.0724,7.3946 2.1174,-0.8851 11.6141,-30.4055 11.6141,-30.4055 -26.7091,-74.2741 20.5621,-30.7328999 39.2116,-7.7819 5.4694,6.731 -15.5407,32.4094 -6.626,33.1971 9.2284,-5.9107 18.3653,-13.2123 27.7969,-19.4527 z"
       style="fill:#000000;fill-rule:evenodd;stroke:#000000;stroke-width:1px;stroke-linecap:butt;stroke-linejoin:miter;stroke-opacity:1"
       inkscape:label="#path3415" />
  </g>
  <g
     style="display:inline;opacity:1"
     transform="translate(-325.295,-515.85683)"
     id="g3417"
     inkscape:groupmode="layer"
     inkscape:label="7">
    <path
       inkscape:label="#path3421"
       sodipodi:nodetypes="accccsccccssca"
       inkscape:connector-curvature="0"
       id="42"
       d="m 1029.1934,235.6716 c 6.2279,-3.7369 12.3668,-11.6198 17.5779,-12.8754 8.5989,-0.8398 13.931,4.2006 19.2482,9.2677 4.2709,1.3928 12.0207,2.2885 12.1194,4.2774 0.6737,2.5805 0,0 -10.6936,2.8516 -3.3859,3.8039 -26.8887,15.9906 -29.1117,19.501 -9.1606,14.4657 -10.9757,9.827 -17.2755,21.8711 -15.4505,4.4467 -40.68926,11.6741 -73.07206,5.3468 -18.2889,-21.3164 -38.7524,-22.9037 -39.7851,-34.4848 5.9207,-1.0495 18.4355,-4.7611 39.0721,7.3946 2.1175,-0.885 11.6142,-30.4055 11.6142,-30.4055 -47.9981,-42.7077 16.8417,-25.2164 39.2115,-7.7818 6.84066,5.3315 -15.5406,32.4093 -6.6259,33.197 9.22826,-5.9107 25.75466,-10.9798 37.72056,-18.1597 z"
       style="fill:#000000;fill-rule:evenodd;stroke:#000000;stroke-width:1px;stroke-linecap:butt;stroke-linejoin:miter;stroke-opacity:1" />
    <path
       inkscape:label="#path3421"
       sodipodi:nodetypes="accccsccccssca"
       inkscape:connector-curvature="0"
       id="32"
       d="m 959.54515,29.308704 c 6.2279,-3.7369 12.3668,-11.6198 17.5779,-12.8754 8.5989,-0.8398 13.931,4.2006 19.2482,9.2677 4.27085,1.3928 12.02075,2.2885 12.11925,4.2774 0.6738,2.5805 0,0 -10.69345,2.8516 -3.3859,3.8039 -26.8888,15.9906 -29.1117,19.501 -9.1606,14.4657 -10.9757,9.827 -17.2755,21.8711 -15.4505,4.4467 -40.6893,11.6741 -73.0722,5.3468 -18.2888,-21.3164 -38.7523,-22.9037 -39.7851,-34.4848 5.9208,-1.0495 18.4356,-4.7611 39.0722,7.3946 2.1175,-0.885 11.6142,-30.4055 11.6142,-30.4055 -47.9981,-42.7077 16.8417,-25.2164001 39.2115,-7.7818 6.8407,5.3315 -15.5406,32.4093 -6.6259,33.197 9.2283,-5.9107 25.7546,-10.9798 37.7206,-18.1597 z"
       style="fill:#000000;fill-rule:evenodd;stroke:#000000;stroke-width:1px;stroke-linecap:butt;stroke-linejoin:miter;stroke-opacity:1" />
  </g>
  <g
     inkscape:label="8"
     inkscape:groupmode="layer"
     id="g3423"
     transform="translate(-325.295,-515.85683)"
     style="display:inline;opacity:1">
    <path
       sodipodi:nodetypes="accccccccasaa"
       inkscape:connector-curvature="0"
       id="8"
       d="m 1274.4333,237.63827 c 6.8028,-2.621 13.627,-9.8555 18.8381,-11.1111 8.5989,-0.8397 13.931,4.2007 19.2482,9.2677 4.2707,1.3928 12.0207,2.2886 12.1194,4.2774 0.6736,2.5806 -2.6311,3.6311 -10.6936,2.8516 -25.2904,15.504 -39.2873,26.9231 -46.6393,42.1283 -15.4504,4.4468 -40.6893,11.6741 -73.0721,5.3468 -18.2888,-21.3164 -38.7524,-22.9037 -39.7852,-34.4848 5.9208,-1.0495 18.4357,-4.7611 39.0723,7.3946 2.1174,-0.885 -9.3509,-15.106 -5.7117,-21.606 9.1223,-16.2933 36.8678,-26.7141 53.6552,-16.1025 7.3311,4.634 8.0395,13.573 14.9414,15.7415 5.8525,1.8388 12.3029,-1.4979 18.0273,-3.7035 z"
       style="fill:#000000;fill-rule:evenodd;stroke:#000000;stroke-width:1px;stroke-linecap:butt;stroke-linejoin:miter;stroke-opacity:1"
       inkscape:label="#path3427" />
  </g>
  <g
     style="display:inline;opacity:1"
     transform="translate(-325.295,-515.85683)"
     id="g3429"
     inkscape:groupmode="layer"
     inkscape:label="9">
    <path
       style="fill:#000000;fill-rule:evenodd;stroke:#000000;stroke-width:1px;stroke-linecap:butt;stroke-linejoin:miter;stroke-opacity:1"
       d="m 1585.9863,243.6782 c 9.5794,-6.0542 17.6598,-7.8391 22.8709,-9.0947 8.5988,-0.8397 13.9309,4.2007 19.2482,9.2677 4.2707,1.3928 12.0207,2.2886 12.1193,4.2774 0.6736,2.5806 -2.631,3.6311 -10.6935,2.8516 -25.2904,15.504 -44.5729,22.7934 -51.9249,37.9986 -2.8596,13.3344 -34.4109,17.7203 -68.7947,9.9806 -18.2888,-15.5751 -36.9701,-22.1908 -38.003,-33.7719 5.9209,-1.0495 51.9051,7.0262 41.5675,-2.2295 -37.0169,-33.1427 52.4886,-37.8652 62.0222,-41.3481 10.2935,-3.7606 2.0087,28.1226 11.588,22.0683 z"
       id="9"
       inkscape:connector-curvature="0"
       sodipodi:nodetypes="zcccccccssz"
       inkscape:label="#path3433" />
  </g>
  <g
     inkscape:label="10"
     inkscape:groupmode="layer"
     id="g3435"
     transform="translate(-325.295,-515.85683)"
     style="display:inline;opacity:1">
    <path
       sodipodi:nodetypes="scccccaccsss"
       inkscape:connector-curvature="0"
       id="10"
       d="m 1902.4681,244.69442 c 7.703,3.2887 18.4369,-7.238 23.648,-8.4936 8.5988,-0.8398 13.9309,4.2006 19.2482,9.2677 4.2707,1.3928 12.0207,2.2886 12.1193,4.2774 0.6736,2.5806 -2.631,3.631 -10.6935,2.8516 -21.2947,7.552 -38.5129,16.1935 -45.0244,32.3967 -4.3824,4.2705 -13.6492,5.8343 -20.9138,6.8623 -21.852,3.0924 -36.0453,7.347 -66.1664,-2.3761 -17.7375,-4.7977 -28.1132,-1.8071 -29.1909,-13.9435 9.9991,-10.8283 55.1604,2.7322 45.4093,-8.5128 -43.6894,-50.3828 51.8131,-46.9944 61.6657,-44.5562 39.0709,9.6688 2.4395,19.0421 9.8985,22.2265 z"
       style="fill:#000000;fill-rule:evenodd;stroke:#000000;stroke-width:1px;stroke-linecap:butt;stroke-linejoin:miter;stroke-opacity:1"
       inkscape:label="#path3439" />
  </g>
  <g
     style="display:inline;opacity:1"
     transform="translate(-325.295,-515.85683)"
     id="g3441"
     inkscape:groupmode="layer"
     inkscape:label="11">
    <path
       style="fill:#000000;fill-rule:evenodd;stroke:#000000;stroke-width:1px;stroke-linecap:butt;stroke-linejoin:miter;stroke-opacity:1"
       d="m 2218.441,244.69442 c 7.703,3.2887 18.4369,-7.238 23.6479,-8.4936 8.5989,-0.8398 13.931,4.2006 19.2483,9.2677 4.2707,1.3928 12.0207,2.2886 12.1193,4.2774 0.6736,2.5806 -2.6311,3.631 -10.6935,2.8516 -21.2947,7.552 -38.5129,16.1935 -45.0244,32.3967 -4.3824,4.2705 -13.6492,5.8343 -20.9138,6.8623 -21.852,3.0924 -36.0453,7.347 -66.1665,-2.3761 -17.7375,-4.7977 -28.1132,-1.8071 -29.1908,-13.9435 9.9991,-10.8283 55.1604,2.7322 45.4093,-8.5128 -43.6895,-50.3828 51.813,-46.9944 61.6657,-44.5562 39.0708,9.6688 2.4395,19.0421 9.8985,22.2265 z"
       id="11"
       inkscape:connector-curvature="0"
       sodipodi:nodetypes="scccccaccsss"
       inkscape:label="#path3443" />
    <path
       inkscape:label="#path3443"
       sodipodi:nodetypes="ccccccacccc"
       inkscape:connector-curvature="0"
       id="33"
       d="m 2534.4131,243.68623 c 7.703,3.2887 18.4369,-7.238 23.6479,-8.4936 8.5989,-0.8398 13.931,4.2006 19.2483,9.2677 4.2707,1.3928 12.0207,2.2886 12.1193,4.2774 0.6736,2.5806 -2.6311,3.631 -10.6935,2.8516 -21.2947,7.552 -38.5129,16.1935 -45.0244,32.3967 -4.3824,4.2705 -13.6492,5.8343 -20.9138,6.8623 -21.852,3.0924 -36.0453,7.347 -66.1665,-2.3761 -17.7375,-4.7977 -28.1132,-1.8071 -29.1908,-13.9435 9.9991,-10.8283 55.1604,2.7322 45.4093,-8.5128 0.5548,-24.98284 49.9077,-34.7975 71.5642,-22.3297 z"
       style="fill:#000000;fill-rule:evenodd;stroke:#000000;stroke-width:1px;stroke-linecap:butt;stroke-linejoin:miter;stroke-opacity:1" />
    <path
       style="fill:#000000;fill-rule:evenodd;stroke:#000000;stroke-width:1px;stroke-linecap:butt;stroke-linejoin:miter;stroke-opacity:1"
       d="m 2850.3859,240.83463 c 11.6239,0.4371 18.4369,-7.238 23.6479,-8.4936 8.5989,-0.8398 13.931,4.2006 19.2483,9.2677 4.2707,1.3928 12.0207,2.2886 12.1193,4.2774 0.6736,2.5806 -2.6311,3.631 -10.6935,2.8516 -21.2947,7.552 -38.5129,16.1935 -45.0244,32.3967 -38.1615,28.6241 -51.5525,14.15118 -65.5729,10.04277 -8.3847,-0.4108 -9.6029,-1.71381 -21.5074,-5.55657 -17.7375,-4.7977 -28.1132,-1.8071 -29.1908,-13.9435 9.9991,-10.8283 36.625,-2.97099 50.0431,-11.72084 20.2612,-8.16036 66.9304,-19.12166 66.9304,-19.12166 z"
       id="34"
       inkscape:connector-curvature="0"
       sodipodi:nodetypes="ccccccccccc"
       inkscape:label="#path3443" />
    <path
       inkscape:label="#path3443"
       sodipodi:nodetypes="scccccccccs"
       inkscape:connector-curvature="0"
       id="35"
       d="m 3167.4277,241.54753 c 7.6479,-3.41493 18.437,-7.238 23.6479,-8.4936 8.5989,-0.8398 13.931,4.2006 19.2484,9.2677 4.2707,1.3928 12.0207,2.2886 12.1192,4.2774 0.6736,2.5806 -2.6311,3.631 -10.6934,2.8516 -21.2947,7.552 -38.513,16.1935 -45.0244,32.3967 -29.8783,90.26226 -51.5311,21.94334 -65.5729,10.04277 -8.3847,-0.4108 -9.6029,-1.71381 -21.5074,-5.55657 -17.7375,-4.7977 -30.252,-9.29254 -31.3295,-21.42894 9.9991,-10.8283 38.7637,4.51445 52.1818,-4.2354 20.2612,-6.18406 44.8446,-9.25991 66.9304,-19.12166 z"
       style="fill:#000000;fill-rule:evenodd;stroke:#000000;stroke-width:1px;stroke-linecap:butt;stroke-linejoin:miter;stroke-opacity:1" />
    <path
       style="fill:#000000;fill-rule:evenodd;stroke:#000000;stroke-width:1px;stroke-linecap:butt;stroke-linejoin:miter;stroke-opacity:1"
       d="m 3483.4006,224.43796 c 7.6479,-3.41493 18.4369,-7.238 23.6479,-8.4936 8.5989,-0.8398 13.931,4.2006 19.2483,9.2677 4.2707,1.3928 12.0207,2.2886 12.1193,4.2774 0.6736,2.5806 -2.6311,3.631 -10.6935,2.8516 -21.2947,7.552 -38.5129,16.1935 -45.0244,32.3967 -31.9583,132.90146 -51.8881,29.26114 -65.5729,10.04277 -8.3847,-0.4108 -9.6029,-1.71381 -21.5074,-5.55657 -17.7375,-4.7977 -30.2519,-4.75568 -31.3295,-16.89208 9.9991,-10.8283 37.7555,-1.5347 52.1818,-5.24359 20.2612,-6.18406 44.8446,-12.78858 66.9304,-22.65033 z"
       id="path3412"
       inkscape:connector-curvature="0"
       sodipodi:nodetypes="scccccccccs"
       inkscape:label="#path3443" />
    <path
       inkscape:label="#path3443"
       sodipodi:nodetypes="scccccccccs"
       inkscape:connector-curvature="0"
       id="36"
       d="m 3799.3731,224.43796 c 7.6479,-3.41493 18.437,-7.238 23.6479,-8.4936 8.5989,-0.8398 13.931,4.2006 19.2484,9.2677 4.2707,1.3928 12.0207,2.2886 12.1192,4.2774 0.6737,2.5806 -2.6311,3.631 -10.6934,2.8516 -21.2947,7.552 -38.513,16.1935 -45.0244,32.3967 -31.9583,132.90146 -51.8881,29.26114 -65.5729,10.04277 -8.3847,-0.4108 -9.6029,-1.71381 -21.5074,-5.55657 -17.7375,-4.7977 -30.2519,-4.75568 -31.3295,-16.89208 9.9991,-10.8283 37.7555,-1.5347 52.1818,-5.24359 20.2612,-6.18406 44.8446,-12.78858 66.9304,-22.65033 z"
       style="fill:#000000;fill-rule:evenodd;stroke:#000000;stroke-width:1px;stroke-linecap:butt;stroke-linejoin:miter;stroke-opacity:1" />
    <path
       style="fill:#000000;fill-rule:evenodd;stroke:#000000;stroke-width:1px;stroke-linecap:butt;stroke-linejoin:miter;stroke-opacity:1"
       d="m 4115.3458,229.0718 c 7.6479,-3.41493 18.4369,-7.238 23.6479,-8.4936 8.5989,-0.8398 13.931,4.2006 19.2483,9.2677 4.2707,1.3928 12.0207,2.2886 12.1193,4.2774 0.6736,2.5806 -2.631,3.631 -10.6935,2.8516 -21.2947,7.552 -38.5129,16.1935 -45.0244,32.3967 -28.2386,99.42383 -51.3258,24.20036 -65.5729,10.04277 -8.3847,-0.4108 -9.6029,-1.71381 -21.5074,-5.55657 -17.7375,-4.7977 -30.2519,-4.75568 -31.3295,-16.89208 9.9991,-10.8283 37.7555,-1.5347 52.1818,-5.24359 20.2612,-6.18406 44.8446,-12.78858 66.9304,-22.65033 z"
       id="37"
       inkscape:connector-curvature="0"
       sodipodi:nodetypes="scccccccccs"
       inkscape:label="#path3443" />
    <path
       inkscape:label="#path3443"
       sodipodi:nodetypes="scccccccccs"
       inkscape:connector-curvature="0"
       id="38"
       d="m 4431.3183,236.91369 c 7.6479,-3.41493 18.4369,-7.238 23.6479,-8.4936 8.599,-0.8398 13.931,4.2006 19.2484,9.2677 4.2706,1.3928 12.0206,2.2886 12.1193,4.2774 0.6736,2.5806 -2.6311,3.631 -10.6936,2.8516 -21.2947,7.552 -38.5129,16.1935 -45.0244,32.3967 -29.7629,64.36538 -51.4967,20.26905 -65.5729,10.04277 -8.3847,-0.4108 -9.6028,-1.71381 -21.5074,-5.55657 -17.7375,-4.7977 -30.2519,-4.75568 -31.3295,-16.89208 9.9991,-10.8283 37.7555,-1.5347 52.1818,-5.24359 20.2612,-6.18406 44.8447,-12.78858 66.9304,-22.65033 z"
       style="fill:#000000;fill-rule:evenodd;stroke:#000000;stroke-width:1px;stroke-linecap:butt;stroke-linejoin:miter;stroke-opacity:1" />
    <path
       style="fill:#000000;fill-rule:evenodd;stroke:#000000;stroke-width:1px;stroke-linecap:butt;stroke-linejoin:miter;stroke-opacity:1"
       d="m 4747.2911,236.91369 c 7.6479,-3.41494 18.4369,-7.238 23.6479,-8.4936 8.5989,-0.8398 13.931,4.2006 19.2483,9.2677 4.2707,1.3928 12.0207,2.2886 12.1194,4.2774 0.6736,2.5806 -2.6311,3.631 -10.6936,2.8516 -21.2947,7.552 -38.5128,16.1935 -45.0244,32.3967 -29.7629,33.59395 -51.4967,14.781 -65.5729,10.04277 -8.3847,-0.4108 -9.6029,-1.71381 -21.5074,-5.55657 -17.7375,-4.7977 -30.2519,-4.75568 -31.3295,-16.89208 9.9991,-10.8283 37.7555,-1.5347 52.1818,-5.24359 -0.097,-15.0174 9.4629,-16.53741 18.3603,-20.49083 17.2867,-7.68107 28.1897,-0.2374 33.8285,4.33227 0,0 4.2084,-1.78849 14.7416,-6.49177 z"
       id="39"
       inkscape:connector-curvature="0"
       sodipodi:nodetypes="scccccccccsss"
       inkscape:label="#path3443" />
    <path
       inkscape:label="#path3443"
       sodipodi:nodetypes="scccccccccsss"
       inkscape:connector-curvature="0"
       id="40"
       d="m 5063.2638,236.91369 c 7.6479,-3.41494 18.4369,-7.238 23.6479,-8.4936 8.5989,-0.8398 13.931,4.2006 19.2483,9.2677 4.2707,1.3928 12.0207,2.2886 12.1193,4.2774 0.6736,2.5806 -2.6311,3.631 -10.6935,2.8516 -21.2947,7.552 -38.5129,16.1935 -45.0244,32.3967 -16.5741,9.89288 -51.6298,12.25213 -65.5729,10.04277 -8.3847,-0.4108 -9.6029,-1.71381 -21.5075,-5.55657 -17.7375,-4.7977 -30.2519,-4.75568 -31.3294,-16.89208 9.9991,-10.8283 37.7555,-1.5347 52.1818,-5.24359 -37.4591,-19.49152 -3.3105,-27.67046 13.3193,-32.08503 32.7418,-8.69161 35.3673,10.28851 38.8695,15.92647 0,0 4.2084,-1.78849 14.7416,-6.49177 z"
       style="fill:#000000;fill-rule:evenodd;stroke:#000000;stroke-width:1px;stroke-linecap:butt;stroke-linejoin:miter;stroke-opacity:1" />
    <path
       style="fill:#000000;fill-rule:evenodd;stroke:#000000;stroke-width:1px;stroke-linecap:butt;stroke-linejoin:miter;stroke-opacity:1"
       d="m 5379.2363,236.91369 c 7.6479,-3.41494 18.4369,-7.238 23.6479,-8.4936 8.5989,-0.8398 13.931,4.2006 19.2483,9.2677 4.2707,1.3928 12.0207,2.2886 12.1194,4.2774 0.6736,2.5806 -2.6311,3.631 -10.6936,2.8516 -21.2947,7.552 -38.5128,16.1935 -45.0244,32.3967 -16.5741,9.89288 -51.6298,12.25213 -65.5729,10.04277 -8.3847,-0.4108 -9.6029,-1.71381 -21.5074,-5.55657 -17.7375,-4.7977 -30.2519,-4.75568 -31.3295,-16.89208 9.9991,-10.8283 37.7555,-1.5347 52.1818,-5.24359 -5.7748,-2.39802 -6.6996,-11.72594 -10.8609,-13.98096 -46.1068,-24.98499 -13.5535,-29.55084 15.1065,-29.19417 33.8732,0.42154 44.441,21.37861 47.9432,27.01657 0,0 4.2084,-1.78849 14.7416,-6.49177 z"
       id="41"
       inkscape:connector-curvature="0"
       sodipodi:nodetypes="scccccccccssss"
       inkscape:label="#path3443" />
  </g>
  <g
     inkscape:label="12"
     inkscape:groupmode="layer"
     id="g3445"
     transform="translate(-325.295,-515.85683)"
     style="display:inline;opacity:1">
    <path
       sodipodi:nodetypes="scccccaccsss"
       inkscape:connector-curvature="0"
       id="12"
       d="m 6007.5977,447.54517 c 8.0519,2.3063 17.395,-9.4723 22.4097,-11.3655 8.4279,-1.9014 14.3449,2.4376 20.2504,6.8049 4.4107,0.8515 12.2119,0.7776 12.5568,2.7388 0.989,2.4769 -2.1596,3.9297 -10.2564,4.1578 -20.1917,10.1389 -36.2031,20.8523 -40.6514,37.7389 -3.8179,4.7818 -12.8187,7.4846 -19.8993,9.4071 -21.2986,5.7829 -34.8535,11.7677 -65.9491,5.8616 -18.1961,-2.5571 -28.12,1.6992 -30.6969,-10.2093 8.5765,-11.9866 55.0726,-4.1411 44.0001,-14.0878 -49.6097,-44.5653 45.574,-53.0667 55.6533,-51.8713 39.9692,4.7405 4.786,18.5916 12.5828,20.8248 z"
       style="fill:#000000;fill-rule:evenodd;stroke:#000000;stroke-width:1px;stroke-linecap:butt;stroke-linejoin:miter;stroke-opacity:1"
       inkscape:label="#path3447" />
  </g>
  <g
     style="display:inline;opacity:1"
     transform="translate(-325.295,-515.85683)"
     id="g3453"
     inkscape:groupmode="layer"
     inkscape:label="13">
    <path
       style="fill:#000000;fill-rule:evenodd;stroke:#000000;stroke-width:1px;stroke-linecap:butt;stroke-linejoin:miter;stroke-opacity:1"
       d="m 6368.8249,447.82137 c 8.3132,1.0213 15.7034,-12.0711 20.3612,-14.7238 8.0279,-3.1936 14.5495,0.1688 21.0643,3.5608 4.4895,0.1527 12.1836,-1.1379 12.8304,0.7455 1.3634,2.2922 -1.5198,4.2186 -9.4818,5.7076 -4.7199,3.3844 -9.3722,6.531 -13.1848,10.2105 -10.7067,10.3333 -16.6071,15.5178 -23.0946,26.3532 -3.0249,5.3191 -13.6843,13.3773 -21.7159,18.4468 -17.6635,11.1492 -27.0447,21.096 -57.1688,25.6606 -18.3722,0.3142 -29.0224,-2.5024 -33.4265,-13.8628 6.6007,-13.1782 53.7515,-12.6858 41.2623,-20.7824 -55.9573,-36.2764 20.0978,-62.0499 30.2402,-62.4422 40.2192,-1.5559 24.2641,20.1372 32.314,21.1262 z"
       id="13"
       inkscape:connector-curvature="0"
       sodipodi:nodetypes="sccccscaccsss"
       inkscape:label="#path3455" />
  </g>
  <g
     inkscape:label="14"
     inkscape:groupmode="layer"
     id="g3457"
     transform="translate(-325.295,-515.85683)"
     style="display:inline;opacity:1">
    <path
       sodipodi:nodetypes="sccccccccssss"
       inkscape:connector-curvature="0"
       id="14"
       d="m 6740.0356,445.39857 c 8.3742,0.159 14.3757,-13.6254 18.7352,-16.744 7.656,-4.0039 14.4895,-1.3317 21.3192,1.3709 4.4813,-0.3109 12.0014,-2.3876 12.8388,-0.581 1.5925,2.1395 -1.0769,4.3529 -8.8429,6.6546 -4.346,3.8528 -8.6491,7.4621 -12.0623,11.515 -7.4344,23.1387 -9.8553,39.6658 -39.9545,49.1799 -16.1445,13.9263 -22.7098,29.3161 -52.203,36.9613 -17.3899,-3.7587 -25.1297,-5.2911 -31.1486,-12.8644 5.2072,-13.7883 46.7085,-21.3741 33.3554,-27.949 -7.8416,-3.8611 -12.8437,-10.4989 -18.9473,-11.603 -72.5889,-13.1313 13.0442,-60.6726 42.5908,-53.6235 39.1506,9.3404 26.2104,17.5292 34.3193,17.6832 z"
       style="fill:#000000;fill-rule:evenodd;stroke:#000000;stroke-width:1px;stroke-linecap:butt;stroke-linejoin:miter;stroke-opacity:1"
       inkscape:label="#path3459" />
  </g>
  <g
     style="display:inline;opacity:1"
     transform="translate(-325.295,-515.85683)"
     id="g3461"
     inkscape:groupmode="layer"
     inkscape:label="15">
    <path
       style="fill:#000000;fill-rule:evenodd;stroke:#000000;stroke-width:1px;stroke-linecap:butt;stroke-linejoin:miter;stroke-opacity:1"
       d="m 7117.1347,447.67527 c 8.3575,-0.5511 13.1693,-14.7945 17.2489,-18.2713 7.2892,-4.6383 14.3245,-2.5548 21.3587,-0.4407 4.4388,-0.6895 11.7559,-3.396 12.7434,-1.6668 1.768,1.9968 -0.7042,4.4284 -8.2473,7.38 -4.0038,4.2071 -7.9857,8.1681 -11.043,12.4957 -2.4039,10.4532 5.6339,16.0119 2.1547,23.9371 -4.404,10.0321 -21.4934,21.7307 -37.7978,28.4517 -14.9064,15.2443 -22.6644,35.672 -51.4037,45.7889 -17.6458,-2.2715 -22.967,-7.6793 -29.6061,-14.7153 4.02,-14.18 44.7292,-25.2554 30.8669,-30.6751 -8.1406,-3.1827 -13.6767,-10.4154 -19.8625,-9.9557 -94.3584,7.0126 7.1404,-61.0827 37.8935,-57.0397 39.9061,5.2462 27.6017,15.2449 35.6944,14.7112 z"
       id="15"
       inkscape:connector-curvature="0"
       sodipodi:nodetypes="scccccscccssss"
       inkscape:label="#path3463" />
  </g>
  <g
     inkscape:label="16"
     inkscape:groupmode="layer"
     id="g3465"
     transform="translate(-325.295,-515.85683)"
     style="display:inline;opacity:1">
    <path
       sodipodi:nodetypes="scccccscccssss"
       inkscape:connector-curvature="0"
       id="16"
       d="m 7494.0996,451.06267 c 8.2971,-1.1447 12.0827,-15.6945 15.9045,-19.4529 6.9405,-5.1455 14.1062,-3.5681 21.2731,-1.9601 4.3785,-1.0038 11.4843,-4.2243 12.5924,-2.5698 1.9057,1.8659 -0.3872,4.4673 -7.701,7.9484 -3.6942,4.4815 -7.3839,8.7159 -10.1254,13.2502 -1.6536,10.5978 15.3063,10.5384 14.9434,19.186 -0.5282,12.5881 -8.7518,44.7633 -46.7666,35.6073 -13.7833,16.2668 -20.0674,37.195 -48.0135,49.3322 -17.7628,-1.0096 -23.4555,-6.0248 -30.5786,-12.5703 3.0003,-14.4303 42.8178,-28.3757 28.6048,-32.7948 -8.3464,-2.5951 -14.3289,-8.8857 -20.5208,-8.5163 -113.4593,6.7684 -2.4004,-63.247 33.7367,-59.5927 40.0452,4.0495 28.6168,13.2413 36.651,12.1328 z"
       style="fill:#000000;fill-rule:evenodd;stroke:#000000;stroke-width:1px;stroke-linecap:butt;stroke-linejoin:miter;stroke-opacity:1"
       inkscape:label="#path3467" />
  </g>
  <g
     style="display:inline;opacity:1"
     transform="translate(-325.295,-515.85683)"
     id="g3469"
     inkscape:groupmode="layer"
     inkscape:label="17">
    <path
       style="fill:#000000;fill-rule:evenodd;stroke:#000000;stroke-width:1px;stroke-linecap:butt;stroke-linejoin:miter;stroke-opacity:1"
       d="m 7870.3347,456.48807 c 8.1998,-1.7075 10.985,-16.4814 14.5417,-20.4916 6.5737,-5.6065 11.7703,-4.9838 19.0879,-5.6182 3.87,-2.2807 10.8315,-4.664 12.388,-3.422 2.3806,1.2023 -1.2226,2.9251 -7.1414,8.4548 -2.1662,5.3887 -4.7705,11.4117 -7.1967,16.1222 -0.9274,10.6859 11.7399,10.7153 16.2162,18.1231 9.7437,16.1245 16.083,53.417 -44.2311,38.7117 -12.6427,17.1683 -17.486,38.4761 -44.5399,52.4897 -17.7902,0.2033 -23.8116,-4.4123 -31.3642,-10.4572 2.0099,-14.6011 40.7844,-31.2278 26.3033,-34.6679 -8.504,-2.0202 -11.9159,-15.2073 -18.0289,-14.1554 -136.4261,23.476 -13.9858,-57.4155 26.5723,-54.696 40.1592,2.6928 29.4528,11.2603 37.3927,9.6068 z"
       id="17"
       inkscape:connector-curvature="0"
       sodipodi:nodetypes="scccccscccssss"
       inkscape:label="#path3471" />
  </g>
  <g
     inkscape:label="18"
     inkscape:groupmode="layer"
     id="g3473"
     transform="translate(-325.295,-515.85683)"
     style="display:inline;opacity:1">
    <path
       sodipodi:nodetypes="scccccscccssss"
       inkscape:connector-curvature="0"
       id="18"
       d="m 8240.0728,459.05917 c 8.0442,-2.3332 9.6847,-17.2776 12.9224,-21.5495 6.1229,-6.0955 9.8865,-2.22 16.6756,-5.023 5.6796,-2.2685 9.161,-6.5077 11.0187,-5.7906 2.632,0.4317 -1.4159,3.3527 -5.4005,10.4048 -0.4475,5.7906 2.5818,13.2268 0.5253,18.11 -0.1029,10.7256 6.1869,7.9877 13.0254,13.2934 19.3696,15.0282 55.9179,69.1757 -41.1224,41.9992 -11.2847,18.09 -7.4172,44.7481 -33.3131,60.8012 -17.7219,1.5712 -27.6091,-3.5758 -35.6044,-9.0218 0.881,-14.7126 34.7329,-38.3052 20.0301,-40.6213 -8.6342,-1.3601 -12.8618,-12.6618 -19.0644,-12.7266 -141.7212,-1.4805 -19.2627,-60.4217 22.2864,-56.5779 40.0782,3.7077 30.2317,8.9614 38.021,6.7021 z"
       style="fill:#000000;fill-rule:evenodd;stroke:#000000;stroke-width:1px;stroke-linecap:butt;stroke-linejoin:miter;stroke-opacity:1"
       inkscape:label="#path3475" />
  </g>
  <g
     style="display:inline;opacity:1"
     transform="translate(-325.295,-515.85683)"
     id="g3477"
     inkscape:groupmode="layer"
     inkscape:label="19">
    <path
       style="fill:#000000;fill-rule:evenodd;stroke:#000000;stroke-width:1px;stroke-linecap:butt;stroke-linejoin:miter;stroke-opacity:1"
       d="m 8615.4075,462.71877 c 7.8915,-2.8066 17.064,-13.9928 20.0425,-18.4493 5.7503,-6.4483 7.0805,-4.1646 12.5674,-9.0474 4.6155,-4.0127 5.8138,-8.6383 7.8041,-8.5731 2.6272,-0.4593 1.4779,3.8053 0.039,11.7763 1.4848,5.6149 1.7961,14.8461 3.0629,19.8428 0.534,10.7128 9.2718,9.8167 17.3201,13.0008 10.5507,4.1742 23.7604,16.4718 35.5039,24.7364 32.8726,23.1342 57.6258,47.968 -14.5336,32.3645 -11.2279,-2.4278 -27.5322,0.704 -49.5467,-2.0413 -10.1911,18.7279 -9.6876,38.4488 -34.585,56.0106 -17.5974,2.6203 -30.2931,2.102 -38.5975,-2.8598 0.01,-14.7388 29.8775,-48.3647 15.0631,-49.804 -8.6997,-0.8453 -34.2654,-18.0408 -40.4541,-17.6218 -141.9841,9.6139 -18.3964,-56.9673 27.9626,-49.7354 13.1018,1.7067 17.2367,-0.098 38.3517,0.4007 z"
       id="19"
       inkscape:connector-curvature="0"
       sodipodi:nodetypes="ccccccssscccsscc"
       inkscape:label="#path3479" />
  </g>
  <g
     inkscape:label="20"
     inkscape:groupmode="layer"
     id="g3481"
     transform="translate(-325.295,-515.85683)"
     style="display:inline;opacity:1">
    <path
       sodipodi:nodetypes="ccccccsccccssccc"
       inkscape:connector-curvature="0"
       id="20"
       d="m 8973.6597,463.90947 c 7.8914,-2.8066 14.5478,-10.0821 16.5326,-15.0613 4.2809,-7.5047 6.0577,-5.5482 10.407,-11.4669 3.6784,-4.8861 5.7772,-10.29 7.7373,-10.6408 2.474,-0.9965 0.348,4.044 0.6006,12.1401 7.454,4.928 5.8763,14.0922 7.1292,18.7694 2.7539,10.3665 17.9208,12.4087 26.0829,15.2884 31.1276,10.9824 150.5936,68.2903 59.0853,57.5576 -5.8309,-0.3168 -59.8605,17.7514 -101.2067,5.481 -10.191,18.7279 4.9268,37.9552 -9.2771,51.9525 -17.5974,2.6204 -42.056,-1.8189 -50.3604,-6.7807 0.01,-14.7389 29.8776,-48.3648 15.0633,-49.8041 -8.6997,-0.8452 -29.9838,-9.0743 -36.1767,-9.4234 -136.7127,-7.7067 -28.4005,-70.2823 17.269,-60.7854 17.0912,2.7467 26.3598,3.1735 37.1137,2.7735 z"
       style="fill:#000000;fill-rule:evenodd;stroke:#000000;stroke-width:1px;stroke-linecap:butt;stroke-linejoin:miter;stroke-opacity:1"
       inkscape:label="#path3483" />
  </g>
  <g
     style="display:inline;opacity:1"
     transform="translate(-325.295,-515.85683)"
     id="g3485"
     inkscape:groupmode="layer"
     inkscape:label="21">
    <path
       style="fill:#000000;fill-rule:evenodd;stroke:#000000;stroke-width:1px;stroke-linecap:butt;stroke-linejoin:miter;stroke-opacity:1"
       d="m 9345.9112,463.90937 c 7.8915,-2.8065 14.5479,-10.0821 16.5327,-15.0613 4.2808,-7.5046 6.0576,-5.5481 10.4069,-11.4669 3.6785,-4.8861 5.7772,-10.2899 7.7374,-10.6407 2.4739,-0.9965 0.348,4.044 0.6005,12.14 7.454,4.9281 5.8763,14.0922 7.1292,18.7695 2.7539,10.3665 17.9208,12.4086 26.0829,15.2884 31.1276,10.9824 116.2337,63.0464 26.3191,42.9388 -12.7135,-2.8431 -45.352,18.3618 -68.4405,13.5466 -10.191,18.7279 4.9268,44.5084 -9.2771,58.5057 -17.5974,2.6203 -42.056,-1.8189 -50.3604,-6.7807 0.01,-14.7389 29.3735,-56.4303 14.5592,-57.8696 -8.6997,-0.8453 -27.9674,-9.5784 -34.1605,-9.9275 -34.0344,-1.8787 -64.9084,15.0382 -69.653,4.916 -7.8265,-16.6972 23.3125,-52.5001 71.7993,-58.6441 17.0913,2.7466 39.9704,4.6858 50.7243,4.2858 z"
       id="21"
       inkscape:connector-curvature="0"
       sodipodi:nodetypes="ccccccsscccscsccc"
       inkscape:label="#path3487" />
  </g>
  <g
     inkscape:label="22"
     inkscape:groupmode="layer"
     id="g3489"
     transform="translate(-325.295,-515.85683)"
     style="display:inline;opacity:1">
    <path
       sodipodi:nodetypes="ccccccsscccscsccc"
       inkscape:connector-curvature="0"
       id="22"
       d="m 9736.035,463.90937 c 7.8915,-2.8065 14.5479,-10.0821 16.5327,-15.0613 4.2809,-7.5046 6.0576,-5.5481 10.407,-11.4669 3.6784,-4.8861 5.7772,-10.2899 7.7373,-10.6407 2.4739,-0.9965 0.348,4.044 0.6006,12.14 7.4539,4.9281 6.3804,24.6783 7.6333,29.3555 9.8112,6.8378 31.4602,1.5287 39.6935,4.1983 32.0901,10.4048 107.2763,60.4561 12.2044,43.4429 -12.8238,-2.2949 -45.352,18.3618 -68.4406,13.5466 -10.1909,18.7279 4.9268,44.5084 -9.277,58.5057 -17.5975,2.6203 -42.056,-1.8189 -50.3604,-6.7807 0.01,-14.7389 29.3734,-56.4303 14.559,-57.8696 -8.6997,-0.8453 -25.9509,-20.1644 -32.1439,-20.5136 -34.0345,-1.8786 -93.836,29.6949 -93.3456,18.5267 1.7513,-39.8856 41.46,-64.5985 89.9467,-70.7424 17.0913,2.7466 43.499,13.7595 54.253,13.3595 z"
       style="fill:#000000;fill-rule:evenodd;stroke:#000000;stroke-width:1px;stroke-linecap:butt;stroke-linejoin:miter;stroke-opacity:1"
       inkscape:label="#path3491" />
  </g>
  <g
     style="display:inline;opacity:1"
     transform="translate(-325.295,-515.85683)"
     id="g3493"
     inkscape:groupmode="layer"
     inkscape:label="23">
    <path
       style="fill:#000000;fill-rule:evenodd;stroke:#000000;stroke-width:1px;stroke-linecap:butt;stroke-linejoin:miter;stroke-opacity:1"
       d="m 10142.794,465.16967 c 7.892,-2.8066 14.548,-10.0821 16.533,-15.0613 4.281,-7.5047 9.586,-6.8084 13.935,-12.7272 3.679,-4.886 7.542,-10.2899 9.502,-10.6407 2.474,-0.9965 -1.416,4.044 -1.164,12.14 7.454,4.9281 2.852,25.9385 4.105,30.6157 9.811,6.8379 49.582,9.6067 57.754,12.4578 32.647,11.3901 128.978,98.851 12.205,43.4429 -11.77,-5.5847 -63.413,10.1024 -86.502,5.2871 -17.51,37.8715 4.498,45.6295 -9.277,58.5057 -16.609,8.0582 -41.792,-0.366 -50.36,-6.7807 0.01,-14.7388 29.373,-56.4303 14.559,-57.8696 -8.7,-0.8452 -54.288,-33.7243 -60.481,-34.0734 -34.034,-1.8787 -106.1062,26.5213 -101.9511,16.1433 13.3455,-33.3323 50.0651,-62.2151 98.5521,-68.3591 17.091,2.7466 71.836,27.3194 82.59,26.9194 z"
       id="23"
       inkscape:connector-curvature="0"
       sodipodi:nodetypes="ccccccsscccscsccc"
       inkscape:label="#path3495" />
  </g>
  <g
     inkscape:label="24"
     inkscape:groupmode="layer"
     id="g4182"
     transform="translate(-325.295,-515.85683)"
     style="display:inline;opacity:1">
    <path
       sodipodi:nodetypes="ccccccscscccscsccc"
       inkscape:connector-curvature="0"
       id="24"
       d="m 10772.557,465.16967 c 7.891,-2.8066 14.548,-10.0821 16.533,-15.0613 4.281,-7.5047 9.586,-6.8084 13.935,-12.7272 3.679,-4.886 7.542,-10.2899 9.502,-10.6407 2.474,-0.9965 -1.416,4.044 -1.164,12.14 7.454,4.9281 2.852,25.9385 4.105,30.6157 9.811,6.8379 66.792,0.2139 74.476,4.1983 61.495,31.8896 71.919,45.8215 87.851,65.6036 -10.187,12.7919 -51.654,8.2072 -91.274,-10.5665 -11.772,-5.5784 -64.507,6.7677 -87.596,1.9524 -17.51,37.8715 4.498,45.6295 -9.277,58.5057 -16.609,8.0582 -41.792,-0.366 -50.36,-6.7807 0.01,-14.7388 29.373,-56.4303 14.559,-57.8696 -8.7,-0.8452 -53.676,-33.775 -59.869,-34.1241 -34.035,-1.8787 -111.249,28.3688 -105.948,18.5267 19.651,-36.4853 55.027,-65.0809 102.549,-70.7425 17.091,2.7467 71.224,27.3701 81.978,26.9701 z"
       style="fill:#000000;fill-rule:evenodd;stroke:#000000;stroke-width:1px;stroke-linecap:butt;stroke-linejoin:miter;stroke-opacity:1"
       inkscape:label="#path4184" />
  </g>
  <g
     style="display:inline;opacity:1"
     transform="translate(-325.295,-515.85683)"
     id="g4186"
     inkscape:groupmode="layer"
     inkscape:label="25">
    <path
       style="fill:#000000;fill-rule:evenodd;stroke:#000000;stroke-width:1px;stroke-linecap:butt;stroke-linejoin:miter;stroke-opacity:1"
       d="m 11381.125,471.93252 c 7.891,-2.8065 14.548,-10.0821 16.532,-15.0613 4.281,-7.5046 9.587,-6.8083 13.936,-12.7271 3.678,-4.8861 7.542,-10.2899 9.502,-10.6408 2.474,-0.9964 -1.417,4.044 -1.164,12.1401 7.454,4.9281 2.852,25.9385 4.105,30.6157 9.811,6.8378 48.031,0.728 56.328,3.1901 59.103,17.5372 81.402,42.2256 89.363,71.1486 -15.227,0.1895 -45.1,-10.4443 -84.72,-29.218 -11.773,-5.5785 -54.426,20.8824 -77.514,16.0671 -17.511,37.8715 4.498,45.6295 -9.277,58.5057 -16.609,8.0582 -41.792,-0.366 -50.36,-6.7807 0.01,-14.7389 29.373,-56.4303 14.559,-57.8696 -8.7,-0.8452 -43.594,-28.734 -49.787,-29.0832 -34.035,-1.8786 -102.542,32.9375 -98.387,22.5595 13.346,-33.3324 46.501,-68.6313 94.988,-74.7752 17.091,2.7466 61.142,22.3291 71.896,21.9291 z"
       id="25"
       inkscape:connector-curvature="0"
       sodipodi:nodetypes="ccccccscscccscsccc"
       inkscape:label="#path4188" />
  </g>
  <g
     inkscape:label="26"
     inkscape:groupmode="layer"
     id="g4190"
     transform="translate(-325.295,-515.85683)"
     style="display:inline;opacity:1">
    <path
       sodipodi:nodetypes="ccccccscscccscsccc"
       inkscape:connector-curvature="0"
       id="26"
       d="m 12026.197,471.93262 c 7.892,-2.8066 14.548,-10.0822 16.533,-15.0614 4.281,-7.5046 9.586,-6.8083 13.935,-12.7271 3.679,-4.8861 7.542,-10.2899 9.502,-10.6408 2.474,-0.9964 -1.416,4.0441 -1.164,12.1401 7.454,4.9281 2.852,25.9385 4.105,30.6157 9.811,6.8378 60.633,-0.7843 68.931,1.6778 59.103,17.5372 50.619,28.8841 96.924,79.7182 -15.227,0.1896 -60.727,-7.4197 -100.347,-26.1934 -11.772,-5.5784 -58.962,10.8005 -82.051,5.9852 -17.51,37.8715 4.498,45.6295 -9.277,58.5057 -16.608,8.0582 -41.792,-0.366 -50.36,-6.7807 0.01,-14.7389 29.373,-56.4303 14.559,-57.8696 -8.7,-0.8452 -46.619,-22.6849 -52.812,-23.034 -34.034,3.0362 -120.128,17.6589 -114.013,6.9325 21.211,-37.207 65.152,-59.0534 113.639,-65.1974 17.091,2.7466 61.142,22.3291 71.896,21.9291 z"
       style="fill:#000000;fill-rule:evenodd;stroke:#000000;stroke-width:1px;stroke-linecap:butt;stroke-linejoin:miter;stroke-opacity:1"
       inkscape:label="#path4192" />
  </g>
  <g
     style="display:inline;opacity:1"
     transform="translate(-325.295,-515.85683)"
     id="g4194"
     inkscape:groupmode="layer"
     inkscape:label="27">
    <path
       style="fill:#000000;fill-rule:evenodd;stroke:#000000;stroke-width:1px;stroke-linecap:butt;stroke-linejoin:miter;stroke-opacity:1"
       d="m 12674.374,471.93262 c 7.892,-2.8066 14.548,-10.0822 16.533,-15.0614 4.281,-7.5046 9.586,-6.8083 13.936,-12.7271 3.678,-4.8861 7.541,-10.2899 9.501,-10.6408 2.474,-0.9964 -1.416,4.0441 -1.163,12.1401 7.454,4.9281 2.851,25.9385 4.104,30.6157 9.811,6.8378 60.634,-0.7843 68.931,1.6778 59.103,17.5372 57.676,34.9333 103.982,85.7674 -15.228,0.1895 -57.199,9.2154 -96.818,-9.5583 -11.773,-5.5784 -68.541,-5.3306 -91.629,-10.1459 -17.511,37.8715 3.49,39.0763 -10.286,51.9525 -16.608,8.0582 -41.791,-0.366 -50.36,-6.7807 0.01,-14.7389 29.373,-56.4303 14.559,-57.8696 -8.7,-0.8452 -71.823,-28.2299 -78.016,-28.579 -57.604,20.7132 -112.114,7.9932 -110.989,-3.6536 26.981,-33.261 87.609,-66.7907 131.786,-57.1318 17.091,2.7466 65.175,30.3946 75.929,29.9946 z"
       id="27"
       inkscape:connector-curvature="0"
       sodipodi:nodetypes="ccccccscscccsccccc"
       inkscape:label="#path4196" />
  </g>
  <g
     inkscape:label="28"
     inkscape:groupmode="layer"
     id="g4198"
     transform="translate(-325.295,-515.85683)"
     style="display:inline;opacity:1">
    <path
       sodipodi:nodetypes="ccccccscscccsccccc"
       inkscape:connector-curvature="0"
       id="28"
       d="m 13289.579,471.93262 c 7.891,-2.8066 14.548,-10.0822 16.533,-15.0614 4.28,-7.5046 9.586,-6.8083 13.935,-12.7271 3.679,-4.8861 7.542,-10.2899 9.502,-10.6408 2.474,-0.9964 -1.416,4.0441 -1.164,12.1401 7.454,4.9281 2.852,25.9385 4.105,30.6157 9.811,6.8378 60.633,-0.7843 68.931,1.6778 59.103,17.5372 57.676,34.9333 103.981,85.7674 -15.227,0.1895 -58.491,0.7318 -97.826,-18.632 -8.725,-4.2954 -47.558,12.1531 -90.621,-1.0722 -17.51,37.8715 3.49,39.0763 -10.285,51.9525 -16.609,8.0582 -41.792,-0.366 -50.36,-6.7807 0.01,-14.7389 29.373,-56.4303 14.559,-57.8696 -8.7,-0.8452 -71.32,-33.775 -77.513,-34.1241 -57.604,20.7132 -101.528,18.5793 -100.403,6.9325 26.981,-33.261 80.553,-63.7662 124.73,-54.1073 17.091,2.7466 61.142,22.3291 71.896,21.9291 z"
       style="fill:#000000;fill-rule:evenodd;stroke:#000000;stroke-width:1px;stroke-linecap:butt;stroke-linejoin:miter;stroke-opacity:1"
       inkscape:label="#path4200" />
  </g>
  <g
     style="display:inline;opacity:1"
     transform="translate(-325.295,-515.85683)"
     id="g4202"
     inkscape:groupmode="layer"
     inkscape:label="29">
    <path
       style="fill:#000000;fill-rule:evenodd;stroke:#000000;stroke-width:1px;stroke-linecap:butt;stroke-linejoin:miter;stroke-opacity:1"
       d="m 13922.929,471.93262 c 7.892,-2.8066 14.548,-10.0822 16.533,-15.0614 4.281,-7.5046 9.586,-6.8083 13.935,-12.7271 3.679,-4.8861 7.542,-10.2899 9.502,-10.6408 2.474,-0.9964 -1.416,4.0441 -1.164,12.1401 7.454,4.9281 2.852,25.9385 4.105,30.6157 9.811,6.8378 60.633,-0.7843 68.931,1.6778 59.103,17.5372 73.303,26.3637 119.609,77.1978 -15.228,0.1895 -74.119,9.3014 -113.454,-10.0624 -8.725,-4.2954 -47.558,12.1531 -90.621,-1.0722 -17.51,37.8715 3.49,39.0763 -10.285,51.9525 -16.608,8.0582 -46.328,-5.407 -54.897,-11.8217 0.01,-14.7388 33.964,-53.5284 19.096,-52.8286 -8.346,0.3928 -80.832,-26.4882 -89.107,-34.1241 -57.604,20.7132 -96.991,-2.0886 -95.866,-13.7355 26.981,-33.261 88.114,-49.6514 132.291,-39.9926 17.091,2.7467 60.638,28.8824 71.392,28.4824 z"
       id="29"
       inkscape:connector-curvature="0"
       sodipodi:nodetypes="ccccccscscccsccccc"
       inkscape:label="#path4204" />
  </g>
  <g
     transform="translate(-325.295,-515.85683)"
     id="g3357"
     inkscape:groupmode="layer"
     inkscape:label="30"
     style="display:inline;opacity:1">
    <path
       sodipodi:nodetypes="cccsssccccccccccc"
       inkscape:connector-curvature="0"
       id="30"
       d="m 14345.514,496.08722 c 31.892,-14.7672 49.528,-62.6393 125.919,-59.0831 26.438,17.6388 68.438,35.0021 89.643,29.0891 9.724,-8.5839 19.217,-15.8297 28.321,-25.0685 4.262,-4.3248 4.661,-1.8971 5.516,-3.1633 5.111,-7.5658 6.006,-4.483 4.507,1.3464 -0.627,2.4344 0.432,1.4373 1.62,6.069 1.31,12.3991 -1.085,23.6359 -4.03,35.5185 29.357,-3.2385 69.908,-2.3337 69.908,-2.3337 63.79,21.8516 40.489,21.4663 108.419,82.2771 -25.92,22.2832 -47.505,-5.768 -93.968,-10.4571 -38.697,6.5574 -66.129,4.8833 -99.607,-4.2139 -5.407,-5.5275 -8.439,3.1965 -5.843,45.6866 -20.462,15.1592 -35.302,5.018 -50.583,-3.1382 5.337,-21.2002 20.352,-56.9169 11.327,-56.5735 -32.875,-8.4795 -65.089,-18.0605 -90.064,-39.7079 -32.798,24.0758 -70.365,28.5388 -101.085,3.7525 z"
       style="fill:#000000;fill-rule:evenodd;stroke:#000000;stroke-width:1px;stroke-linecap:butt;stroke-linejoin:miter;stroke-opacity:1"
       inkscape:label="#path3359" />
  </g>
  <g
     inkscape:label="31"
     inkscape:groupmode="layer"
     id="layer1"
     transform="translate(-325.295,-515.85683)"
     style="display:inline;opacity:1">
    <path
       style="fill:#000000;fill-rule:evenodd;stroke:#000000;stroke-width:1px;stroke-linecap:butt;stroke-linejoin:miter;stroke-opacity:1"
       d="m 14971.804,981.70161 c 31.891,-14.7671 64.44,-29.2634 140.831,-25.7072 26.438,17.6388 52.816,35.0021 74.02,29.0891 9.724,-8.5839 19.218,-15.8297 28.322,-25.0685 4.262,-4.3248 4.66,-1.8971 5.516,-3.1633 5.11,-7.5658 6.006,-4.483 4.506,1.3464 -0.626,2.4344 0.432,1.4373 1.62,6.069 1.311,12.3991 -1.084,23.6359 -4.029,35.5185 29.357,6.74199 81.269,-6.5944 81.269,-6.5944 63.791,21.85159 53.272,15.07509 121.201,75.88599 6.44,7.8243 -4.539,8.9518 -59.335,6.1265 l -47.415,-14.4533 c -38.697,6.5574 -77.49,13.4048 -110.969,4.3076 -5.407,-5.5275 -8.439,3.1965 -5.843,45.6866 -20.462,15.1592 -35.302,5.018 -50.583,-3.1382 5.338,-21.2002 20.353,-56.9169 11.328,-56.5735 -32.875,-8.4795 -65.09,-18.0605 -90.064,-39.7079 l -52.2,-2.0085 c -19.693,-1.9353 -33.648,-15.34769 -48.175,-27.61489 z"
       id="31"
       inkscape:connector-curvature="0"
       sodipodi:nodetypes="cccsssccccccccccccc"
       inkscape:label="#path3336" />
  </g>
</svg>
