<?xml version="1.0" encoding="UTF-8" standalone="no"?>
<!-- Created with Inkscape (http://www.inkscape.org/) -->

<svg
   xmlns:dc="http://purl.org/dc/elements/1.1/"
   xmlns:cc="http://creativecommons.org/ns#"
   xmlns:rdf="http://www.w3.org/1999/02/22-rdf-syntax-ns#"
   xmlns:svg="http://www.w3.org/2000/svg"
   xmlns="http://www.w3.org/2000/svg"
   xmlns:sodipodi="http://sodipodi.sourceforge.net/DTD/sodipodi-0.dtd"
   xmlns:inkscape="http://www.inkscape.org/namespaces/inkscape"
   width="128.78299mm"
   height="47.182995mm"
   viewBox="0 0 456.31768 167.18384"
   id="svg2"
   version="1.1"
   inkscape:version="0.91 r13725"
   sodipodi:docname="bird.svg">
  <defs
     id="defs4" />
  <sodipodi:namedview
     id="base"
     pagecolor="#ffffff"
     bordercolor="#666666"
     borderopacity="1.0"
     inkscape:pageopacity="0.0"
     inkscape:pageshadow="2"
     inkscape:zoom="1.9837509"
     inkscape:cx="211.2076"
     inkscape:cy="35.876167"
     inkscape:document-units="px"
     inkscape:current-layer="layer1"
     showgrid="false"
     fit-margin-top="0"
     fit-margin-left="0"
     fit-margin-right="0"
     fit-margin-bottom="0"
     inkscape:window-width="1362"
     inkscape:window-height="729"
     inkscape:window-x="0"
     inkscape:window-y="18"
     inkscape:window-maximized="0" />
  <metadata
     id="metadata7">
    <rdf:RDF>
      <cc:Work
         rdf:about="">
        <dc:format>image/svg+xml</dc:format>
        <dc:type
           rdf:resource="http://purl.org/dc/dcmitype/StillImage" />
        <dc:title />
      </cc:Work>
    </rdf:RDF>
  </metadata>
  <g
     inkscape:label="2"
     inkscape:groupmode="layer"
     id="g3387"
     transform="translate(-325.295,-515.85683)"
     style="display:none;opacity:0.544">
    <path
       sodipodi:nodetypes="ccccccccccsscc"
       inkscape:connector-curvature="0"
       id="path3391"
       d="m 573.69391,567.939 c 3.23286,-9.16843 8.33401,-10.86369 13.54508,-12.11928 8.59887,-0.83979 13.93097,4.20061 19.24826,9.26768 4.27071,1.39281 12.0207,2.28857 12.11928,4.2774 0.67363,2.58058 -2.63105,3.63104 -10.69348,2.85159 -0.26651,24.03251 -18.10835,35.33148 -17.6285,59.24225 -9.7926,-1.89261 -7.63711,-13.07041 -39.92233,-2.8516 -34.79972,9.70406 -41.47893,4.41052 -48.47712,-0.7129 -3.67437,-25.57322 -26.63307,-28.05817 -27.6659,-43.03955 5.92083,-1.0495 19.06581,0.77276 39.7024,12.92853 1.89307,-0.46121 -2.67781,-8.16279 -7.63784,-9.91732 -33.0072,-11.67578 25.98663,-26.35986 43.87074,-18.97637 8.01662,3.30968 -1.57798,23.99785 7.3367,24.78557 z"
       style="fill:#000000;fill-rule:evenodd;stroke:#000000;stroke-width:1px;stroke-linecap:butt;stroke-linejoin:miter;stroke-opacity:1" />
  </g>
  <g
     style="display:none;opacity:0.544"
     transform="translate(-325.295,-515.85683)"
     id="g3393"
     inkscape:groupmode="layer"
     inkscape:label="3">
    <path
       style="fill:#000000;fill-rule:evenodd;stroke:#000000;stroke-width:1px;stroke-linecap:butt;stroke-linejoin:miter;stroke-opacity:1"
       d="m 581.75944,577.6033 c 3.23286,-9.16843 8.33401,-10.86369 13.54508,-12.11928 8.59887,-0.83979 13.93097,4.20061 19.24826,9.26768 4.27071,1.39281 12.0207,2.28857 12.11928,4.2774 0.67363,2.58058 -2.63105,3.63104 -10.69348,2.85159 -15.07765,20.12761 -18.17771,29.1621 -25.69403,48.15215 -9.7926,-1.89261 -7.63711,-13.07041 -39.92233,-2.8516 -34.79972,9.70406 -41.47893,4.41052 -48.47712,-0.7129 -3.67437,-25.57322 -26.63307,-28.05817 -27.6659,-43.03955 5.92083,-1.0495 18.43569,1.65493 39.07228,13.8107 2.11745,-0.88503 -5.49543,-35.75222 -5.49543,-35.75222 -60.86461,-2.78742 18.24244,-32.67187 41.35026,-8.13832 5.94651,6.31341 -0.56979,38.11253 8.34489,38.90025 z"
       id="path3397"
       inkscape:connector-curvature="0"
       sodipodi:nodetypes="ccccccccccsscc" />
  </g>
  <g
     inkscape:label="4"
     inkscape:groupmode="layer"
     id="g3399"
     transform="translate(-325.295,-515.85683)"
     style="display:none;opacity:0.544">
    <path
       sodipodi:nodetypes="ccccccccccsscc"
       inkscape:connector-curvature="0"
       id="path3403"
       d="m 585.28811,573.86583 c 3.23286,-9.16843 6.31763,-11.87188 11.5287,-13.12747 8.59887,-0.83979 13.93097,4.20061 19.24826,9.26768 4.27071,1.39281 12.0207,2.28857 12.11928,4.2774 0.67363,2.58058 -2.63105,3.63104 -10.69348,2.85159 -25.29045,15.50401 -26.62689,30.56362 -27.20632,52.18491 -9.7926,-1.89261 -7.63711,-13.07041 -39.92233,-2.8516 -34.79972,9.70406 -41.47893,4.41052 -48.47712,-0.7129 -3.67437,-25.57322 -26.63307,-28.05817 -27.6659,-43.03955 5.92083,-1.0495 18.43569,1.65493 39.07228,13.8107 2.11745,-0.88503 -5.49543,-35.75222 -5.49543,-35.75222 -50.14372,-63.53913 18.47348,-33.9811 41.35026,-8.13832 5.74871,6.49403 -0.56979,38.11253 8.34489,38.90025 9.22837,-5.91069 12.27974,-9.08936 27.79691,-17.67047 z"
       style="fill:#000000;fill-rule:evenodd;stroke:#000000;stroke-width:1px;stroke-linecap:butt;stroke-linejoin:miter;stroke-opacity:1" />
  </g>
  <g
     style="display:none;opacity:0.544"
     transform="translate(-325.295,-515.85683)"
     id="g3405"
     inkscape:groupmode="layer"
     inkscape:label="5">
    <path
       style="fill:#000000;fill-rule:evenodd;stroke:#000000;stroke-width:1px;stroke-linecap:butt;stroke-linejoin:miter;stroke-opacity:1"
       d="m 584.75343,571.90536 c 7.06006,-6.68334 9.7039,-9.91141 14.91497,-11.167 8.59887,-0.83979 13.93097,4.20061 19.24826,9.26768 4.27071,1.39281 12.0207,2.28857 12.11928,4.2774 0.67363,2.58058 -2.63105,3.63104 -10.69348,2.85159 -25.29045,15.50401 -20.9237,34.12811 -28.27567,49.33331 -23.64884,-1.25648 -42.82798,3.47572 -75.21082,-2.8516 -18.2888,-20.22648 -38.75235,-25.91947 -39.78518,-40.90085 5.92083,-1.0495 18.43569,1.65493 39.07228,13.8107 2.11745,-0.88503 3.4158,-38.60382 3.4158,-38.60382 -38.84861,-119.26164 17.81342,-40.91924 39.21157,-7.78187 4.70482,7.28593 -7.34233,40.60768 1.57235,41.3954 9.22837,-5.91069 11.53349,-7.44091 24.41064,-19.63094 z"
       id="path3409"
       inkscape:connector-curvature="0"
       sodipodi:nodetypes="sccccccccsscs" />
  </g>
  <g
     inkscape:label="6"
     inkscape:groupmode="layer"
     id="g3411"
     transform="translate(-325.295,-515.85683)"
     style="display:none;opacity:0.544">
    <path
       sodipodi:nodetypes="accccccccssca"
       inkscape:connector-curvature="0"
       id="path3415"
       d="m 584.57521,572.08358 c 5.76526,-3.81457 12.37727,-9.73318 17.58834,-10.98877 8.59887,-0.83979 13.93097,4.20061 19.24826,9.26768 4.27071,1.39281 12.0207,2.28857 12.11928,4.2774 0.67363,2.58058 -2.63105,3.63104 -10.69348,2.85159 -25.29045,15.50401 -26.98334,33.77166 -34.33531,48.97686 -23.64884,-1.25648 -42.82798,3.47572 -75.21082,-2.8516 -18.2888,-20.22648 -38.75235,-19.50338 -39.78518,-34.48476 5.92083,-1.0495 18.43569,-4.76116 39.07228,7.39461 2.11745,-0.88503 11.61414,-30.40548 11.61414,-30.40548 -26.70912,-74.27412 20.56212,-30.73287 39.21157,-7.78187 5.46941,6.73094 -15.54067,32.40934 -6.62599,33.19706 9.22837,-5.91069 18.36532,-13.21232 27.79691,-19.45272 z"
       style="fill:#000000;fill-rule:evenodd;stroke:#000000;stroke-width:1px;stroke-linecap:butt;stroke-linejoin:miter;stroke-opacity:1" />
  </g>
  <g
     style="display:none;opacity:0.544"
     transform="translate(-325.295,-515.85683)"
     id="g3417"
     inkscape:groupmode="layer"
     inkscape:label="7">
    <path
       style="fill:#000000;fill-rule:evenodd;stroke:#000000;stroke-width:1px;stroke-linecap:butt;stroke-linejoin:miter;stroke-opacity:1"
       d="m 595.92477,572.66368 c 6.22789,-3.73687 12.36678,-11.61983 17.57785,-12.87542 8.59887,-0.83979 13.93097,4.20061 19.24826,9.26768 4.27071,1.39281 12.0207,2.28857 12.11928,4.2774 0.67363,2.58058 0,0 -10.69348,2.85159 -3.38599,3.80397 -26.88883,15.99067 -29.11179,19.50103 -9.16051,14.46573 -10.97568,9.82698 -17.2755,21.87115 -15.4505,4.44671 -40.68928,11.67406 -73.07212,5.34674 -18.2888,-21.31641 -38.75235,-22.90365 -39.78518,-34.48476 5.92083,-1.0495 18.43569,-4.76116 39.07228,7.39461 2.11745,-0.88503 11.61414,-30.40548 11.61414,-30.40548 -47.99809,-42.70771 16.84172,-25.21642 39.21157,-7.78187 6.8407,5.33149 -15.54067,32.40934 -6.62599,33.19706 9.22837,-5.91069 25.75467,-10.97985 37.72068,-18.15973 z"
       id="path3421"
       inkscape:connector-curvature="0"
       sodipodi:nodetypes="accccsccccssca" />
  </g>
  <g
     inkscape:label="8"
     inkscape:groupmode="layer"
     id="g3423"
     transform="translate(-325.295,-515.85683)"
     style="display:none;opacity:0.544">
    <path
       sodipodi:nodetypes="accccccccasaa"
       inkscape:connector-curvature="0"
       id="path3427"
       d="m 593.49079,570.14319 c 6.80279,-2.62103 13.62702,-9.8555 18.83809,-11.11109 8.59887,-0.83979 13.93097,4.20061 19.24826,9.26768 4.27071,1.39281 12.0207,2.28857 12.11928,4.2774 0.67363,2.58058 -2.63105,3.63104 -10.69348,2.85159 -25.29045,15.50401 -39.28737,26.92313 -46.63934,42.12833 -15.4505,4.44671 -40.68928,11.67406 -73.07212,5.34674 -18.2888,-21.31641 -38.75235,-22.90365 -39.78518,-34.48476 5.92083,-1.0495 18.43569,-4.76116 39.07228,7.39461 2.11745,-0.88503 -9.35087,-15.10607 -5.71165,-21.60606 9.12228,-16.29324 36.86781,-26.71406 53.6552,-16.10252 7.3311,4.63409 8.03952,13.57302 14.94136,15.74153 5.85252,1.83883 12.30289,-1.49791 18.0273,-3.70345 z"
       style="fill:#000000;fill-rule:evenodd;stroke:#000000;stroke-width:1px;stroke-linecap:butt;stroke-linejoin:miter;stroke-opacity:1" />
  </g>
  <g
     style="display:none;opacity:0.544"
     transform="translate(-325.295,-515.85683)"
     id="g3429"
     inkscape:groupmode="layer"
     inkscape:label="9">
    <path
       style="fill:#000000;fill-rule:evenodd;stroke:#000000;stroke-width:1px;stroke-linecap:butt;stroke-linejoin:miter;stroke-opacity:1"
       d="m 587.61462,566.90982 c 9.57935,-6.05426 17.65978,-7.83911 22.87085,-9.0947 8.59887,-0.83979 13.93097,4.20061 19.24826,9.26768 4.27071,1.39281 12.0207,2.28857 12.11928,4.2774 0.67363,2.58058 -2.63105,3.63104 -10.69348,2.85159 -25.29045,15.50401 -44.57295,22.79338 -51.92492,37.99858 -2.8596,13.33441 -34.41091,17.72035 -68.79473,9.98058 -18.2888,-15.57508 -36.9701,-22.19075 -38.00293,-33.77186 5.92083,-1.0495 51.90508,7.0262 41.56742,-2.22953 -37.01683,-33.1427 52.48861,-37.86516 62.0222,-41.34812 10.29354,-3.7606 2.0087,28.12264 11.58805,22.06838 z"
       id="path3433"
       inkscape:connector-curvature="0"
       sodipodi:nodetypes="zcccccccssz" />
  </g>
  <g
     inkscape:label="10"
     inkscape:groupmode="layer"
     id="g3435"
     transform="translate(-325.295,-515.85683)"
     style="display:none;opacity:0.544">
    <path
       sodipodi:nodetypes="scccccaccsss"
       inkscape:connector-curvature="0"
       id="path3439"
       d="m 579.50892,576.33564 c 7.70305,3.28863 18.43691,-7.23804 23.64798,-8.49363 8.59887,-0.83979 13.93097,4.20061 19.24826,9.26768 4.27071,1.39281 12.0207,2.28857 12.11928,4.2774 0.67363,2.58058 -2.63105,3.63104 -10.69348,2.85159 -21.29472,7.55204 -38.51294,16.19349 -45.02445,32.39673 -4.3824,4.27049 -13.64919,5.83431 -20.91375,6.86234 -21.85199,3.09236 -36.04533,7.34694 -66.16647,-2.37615 -17.73749,-4.79767 -28.1132,-1.80712 -29.19086,-13.9435 9.9991,-10.82832 55.16043,2.73223 45.4093,-8.51281 -43.68943,-50.38283 51.81306,-46.9944 61.66574,-44.55617 39.07081,9.66879 2.43944,19.04208 9.89845,22.22652 z"
       style="fill:#000000;fill-rule:evenodd;stroke:#000000;stroke-width:1px;stroke-linecap:butt;stroke-linejoin:miter;stroke-opacity:1" />
  </g>
  <g
     style="display:none;opacity:0.544"
     transform="translate(-325.295,-515.85683)"
     id="g3441"
     inkscape:groupmode="layer"
     inkscape:label="11">
    <path
       style="fill:#000000;fill-rule:evenodd;stroke:#000000;stroke-width:1px;stroke-linecap:butt;stroke-linejoin:miter;stroke-opacity:1"
       d="m 574.51863,580.61303 c 7.70305,3.28863 18.43691,-7.23804 23.64798,-8.49363 8.59887,-0.83979 13.93097,4.20061 19.24826,9.26768 4.27071,1.39281 12.0207,2.28857 12.11928,4.2774 0.67363,2.58058 -2.63105,3.63104 -10.69348,2.85159 -21.29472,7.55204 -38.51294,16.19349 -45.02445,32.39673 -4.3824,4.27049 -13.64919,5.83431 -20.91375,6.86234 -21.85199,3.09236 -36.04533,7.34694 -66.16647,-2.37615 -17.73749,-4.79767 -28.1132,-1.80712 -29.19086,-13.9435 9.9991,-10.82832 55.16043,2.73223 45.4093,-8.51281 -43.68943,-50.38283 51.81306,-46.9944 61.66574,-44.55617 39.07081,9.66879 2.43944,19.04208 9.89845,22.22652 z"
       id="path3443"
       inkscape:connector-curvature="0"
       sodipodi:nodetypes="scccccaccsss" />
  </g>
  <g
     inkscape:label="12"
     inkscape:groupmode="layer"
     id="g3445"
     transform="translate(-325.295,-515.85683)"
     style="display:none;opacity:0.544">
    <path
       sodipodi:nodetypes="scccccaccsss"
       inkscape:connector-curvature="0"
       id="path3447"
       d="m 575.42808,573.31169 c 8.05191,2.30627 17.39498,-9.47225 22.40971,-11.36545 8.42795,-1.90145 14.34488,2.43754 20.25043,6.80484 4.41065,0.8515 12.21188,0.7776 12.55675,2.73878 0.98898,2.47691 -2.15961,3.92975 -10.25642,4.15787 -20.19165,10.13883 -36.20304,20.85223 -40.65131,37.73884 -3.81797,4.7818 -12.81872,7.48465 -19.8993,9.40714 -21.2986,5.78291 -34.85349,11.76767 -65.94915,5.86161 -18.19608,-2.55712 -28.11993,1.69916 -30.69685,-10.20935 8.57653,-11.98655 55.07258,-4.14108 44.0001,-14.08772 -49.6097,-44.56538 45.57398,-53.06674 55.65323,-51.87131 39.96926,4.74043 4.786,18.59155 12.58281,20.82475 z"
       style="fill:#000000;fill-rule:evenodd;stroke:#000000;stroke-width:1px;stroke-linecap:butt;stroke-linejoin:miter;stroke-opacity:1" />
  </g>
  <g
     style="display:none;opacity:0.544"
     transform="translate(-325.295,-515.85683)"
     id="g3453"
     inkscape:groupmode="layer"
     inkscape:label="13">
    <path
       style="fill:#000000;fill-rule:evenodd;stroke:#000000;stroke-width:1px;stroke-linecap:butt;stroke-linejoin:miter;stroke-opacity:1"
       d="m 572.20432,569.10155 c 8.31318,1.0213 15.70342,-12.0711 20.36121,-14.72378 8.0279,-3.19354 14.54953,0.16879 21.06433,3.56086 4.4895,0.15267 12.18359,-1.1379 12.83033,0.74542 1.36344,2.2922 -1.51981,4.21865 -9.48179,5.70769 -4.7199,3.38432 -9.37217,6.53091 -13.18475,10.21049 -10.70678,10.3333 -16.60713,15.51775 -23.09466,26.35319 -3.02486,5.31909 -13.68426,13.37727 -21.71588,18.4468 -17.66353,11.14915 -27.04468,21.09599 -57.16876,25.66062 -18.3722,0.31418 -29.02242,-2.50245 -33.42639,-13.86283 6.60062,-13.17824 53.75136,-12.6858 41.26214,-20.78241 -55.9573,-36.27638 20.09792,-62.04987 30.24023,-62.44221 40.2193,-1.55588 24.26418,20.13721 32.31399,21.12616 z"
       id="path3455"
       inkscape:connector-curvature="0"
       sodipodi:nodetypes="sccccscaccsss" />
  </g>
  <g
     inkscape:label="14"
     inkscape:groupmode="layer"
     id="g3457"
     transform="translate(-325.295,-515.85683)"
     style="display:none;opacity:0.544">
    <path
       sodipodi:nodetypes="sccccccccssss"
       inkscape:connector-curvature="0"
       id="path3459"
       d="m 569.25029,566.71013 c 8.37417,0.15905 14.37566,-13.62532 18.73524,-16.74394 7.656,-4.00394 14.48944,-1.33169 21.31916,1.37086 4.48132,-0.31087 12.00142,-2.38757 12.83883,-0.58094 1.59243,2.13947 -1.07692,4.35283 -8.84302,6.65456 -4.34595,3.85276 -8.64914,7.46209 -12.06217,11.51502 -7.43446,23.1387 -9.8553,39.6658 -39.95449,49.1799 -16.14459,13.92628 -22.70997,29.31611 -52.20315,36.96123 -17.38987,-3.75869 -25.12958,-5.29102 -31.14851,-12.86432 5.20722,-13.78836 46.7085,-21.37418 33.35536,-27.94907 -7.84164,-3.86111 -12.8436,-10.49883 -18.94739,-11.603 -72.58883,-13.13127 13.04425,-60.67257 42.59083,-53.62344 39.1506,9.34042 26.21045,17.52913 34.31931,17.68314 z"
       style="fill:#000000;fill-rule:evenodd;stroke:#000000;stroke-width:1px;stroke-linecap:butt;stroke-linejoin:miter;stroke-opacity:1" />
  </g>
  <g
     style="display:none;opacity:0.544"
     transform="translate(-325.295,-515.85683)"
     id="g3461"
     inkscape:groupmode="layer"
     inkscape:label="15">
    <path
       style="fill:#000000;fill-rule:evenodd;stroke:#000000;stroke-width:1px;stroke-linecap:butt;stroke-linejoin:miter;stroke-opacity:1"
       d="m 566.2088,564.63003 c 8.35753,-0.55116 13.16932,-14.79452 17.24894,-18.27136 7.28917,-4.63832 14.32448,-2.55476 21.35865,-0.44069 4.43885,-0.68951 11.75592,-3.396 12.74342,-1.66683 1.768,1.99683 -0.70419,4.42843 -8.2473,7.37999 -4.00383,4.20718 -7.98568,8.16819 -11.04298,12.49577 -2.40391,10.45322 5.63389,16.01187 2.1547,23.93705 -4.40415,10.03212 -21.49342,21.73071 -37.79789,28.45175 -14.90639,15.2443 -22.66447,35.67199 -51.40371,45.78891 -17.64583,-2.27153 -22.96707,-7.67933 -29.60613,-14.71533 4.02005,-14.18003 44.72921,-25.25545 30.86694,-30.67512 -8.14063,-3.18271 -13.67669,-10.41536 -19.8625,-9.95564 -94.35846,7.01257 7.14034,-61.08271 37.8935,-57.03976 39.90602,5.24623 27.60162,15.24496 35.69436,14.71126 z"
       id="path3463"
       inkscape:connector-curvature="0"
       sodipodi:nodetypes="scccccscccssss" />
  </g>
  <g
     inkscape:label="16"
     inkscape:groupmode="layer"
     id="g3465"
     transform="translate(-325.295,-515.85683)"
     style="display:none;opacity:0.544">
    <path
       sodipodi:nodetypes="scccccscccssss"
       inkscape:connector-curvature="0"
       id="path3467"
       d="m 563.40438,562.55822 c 8.29709,-1.14473 12.08268,-15.69451 15.90444,-19.45295 6.94047,-5.14547 14.10626,-3.56805 21.27308,-1.96011 4.3785,-1.00376 11.48433,-4.22429 12.59242,-2.5698 1.90567,1.86589 -0.38714,4.46732 -7.70099,7.94839 -3.69416,4.48154 -7.38392,8.71597 -10.12538,13.25022 -1.65364,10.59783 15.30631,10.53842 14.94342,19.18606 -0.52824,12.58801 -8.75182,44.76326 -46.7666,35.60726 -13.78332,16.26682 -20.06746,37.19498 -48.01355,49.33218 -17.76277,-1.00955 -23.4555,-6.02481 -30.57861,-12.57032 3.00037,-14.43024 42.81778,-28.37566 28.60485,-32.79472 -8.34655,-2.5951 -14.32899,-8.88573 -20.52084,-8.51636 -113.45926,6.76839 -2.40039,-63.24699 33.73667,-59.59269 40.04516,4.0495 28.61688,13.24132 36.65109,12.13284 z"
       style="fill:#000000;fill-rule:evenodd;stroke:#000000;stroke-width:1px;stroke-linecap:butt;stroke-linejoin:miter;stroke-opacity:1" />
  </g>
  <g
     style="display:none;opacity:0.544"
     transform="translate(-325.295,-515.85683)"
     id="g3469"
     inkscape:groupmode="layer"
     inkscape:label="17">
    <path
       style="fill:#000000;fill-rule:evenodd;stroke:#000000;stroke-width:1px;stroke-linecap:butt;stroke-linejoin:miter;stroke-opacity:1"
       d="m 560.70308,560.27115 c 8.19979,-1.70753 10.98498,-16.48148 14.54171,-20.49164 6.57366,-5.60651 11.77028,-4.98375 19.08781,-5.61816 3.87003,-2.28071 10.83152,-4.66399 12.38801,-3.42201 2.38066,1.20231 -1.22252,2.92509 -7.14139,8.45474 -2.16612,5.38878 -4.77052,11.41174 -7.19659,16.12228 -0.92753,10.68589 11.73988,10.71523 16.21624,18.12304 9.74365,16.12453 16.08294,53.41703 -44.23117,38.71169 -12.64267,17.16836 -17.48591,38.47613 -44.53985,52.48968 -17.79028,0.20336 -23.81157,-4.41227 -31.36421,-10.45711 2.00995,-14.60117 40.78438,-31.22779 26.30333,-34.66794 -8.504,-2.02023 -11.91595,-15.20728 -18.02896,-14.15537 -136.42616,23.47599 -13.98574,-57.41551 26.57232,-54.696 40.15922,2.69276 29.45277,11.26024 37.39275,9.6068 z"
       id="path3471"
       inkscape:connector-curvature="0"
       sodipodi:nodetypes="scccccscccssss" />
  </g>
  <g
     inkscape:label="18"
     inkscape:groupmode="layer"
     id="g3473"
     transform="translate(-325.295,-515.85683)"
     style="display:none;opacity:0.544">
    <path
       sodipodi:nodetypes="scccccscccssss"
       inkscape:connector-curvature="0"
       id="path3475"
       d="m 557.64673,557.5937 c 8.04415,-2.3332 9.68467,-17.27761 12.92241,-21.54948 6.12293,-6.09554 9.88649,-2.21996 16.67556,-5.02303 5.67964,-2.26849 9.16106,-6.50767 11.01874,-5.79056 2.63187,0.43171 -1.41591,3.35265 -5.40055,10.4048 -0.44747,5.79058 2.58181,13.22684 0.52526,18.11004 -0.10282,10.72557 6.187,7.98765 13.02537,13.29332 19.36957,15.02821 55.91792,69.17575 -41.12243,41.99926 -11.28462,18.08997 -7.41718,44.74811 -33.31304,60.80113 -17.72193,1.57119 -27.60908,-3.57581 -35.60432,-9.02179 0.88088,-14.71252 34.73284,-38.30516 20.03008,-40.62124 -8.63421,-1.36012 -12.86187,-12.66185 -19.06438,-12.72664 -141.7212,-1.48044 -19.26266,-60.42169 22.28638,-56.5779 40.07825,3.70772 30.23164,8.96137 38.02092,6.70209 z"
       style="fill:#000000;fill-rule:evenodd;stroke:#000000;stroke-width:1px;stroke-linecap:butt;stroke-linejoin:miter;stroke-opacity:1" />
  </g>
  <g
     style="display:none;opacity:0.544"
     transform="translate(-325.295,-515.85683)"
     id="g3477"
     inkscape:groupmode="layer"
     inkscape:label="19">
    <path
       style="fill:#000000;fill-rule:evenodd;stroke:#000000;stroke-width:1px;stroke-linecap:butt;stroke-linejoin:miter;stroke-opacity:1"
       d="m 543.62718,554.01702 c 7.89148,-2.80656 17.06403,-13.99279 20.0425,-18.44931 5.75032,-6.44823 7.08052,-4.16454 12.56745,-9.0474 4.61549,-4.01266 5.81378,-8.63827 7.804,-8.57307 2.6272,-0.45927 1.47807,3.80527 0.0386,11.77635 1.48482,5.61484 1.79618,14.84611 3.06293,19.84277 0.53399,10.71276 9.27184,9.81673 17.32012,13.00084 29.93576,11.84337 87.33032,60.06468 -38.55698,44.3661 -10.19096,18.7279 0.29296,49.14224 -24.60438,66.70405 -17.59743,2.62033 -30.29313,2.10205 -38.59753,-2.85976 0.006,-14.73886 29.87745,-48.36478 15.06313,-49.80407 -8.69971,-0.84522 -34.26542,-18.04079 -40.4541,-17.62175 -141.98408,9.61385 -18.3963,-56.9673 27.96253,-49.73546 13.10181,1.70679 17.23676,-0.0978 38.35173,0.40071 z"
       id="path3479"
       inkscape:connector-curvature="0"
       sodipodi:nodetypes="ccccccscccsscc" />
  </g>
  <g
     inkscape:label="20"
     inkscape:groupmode="layer"
     id="g3481"
     transform="translate(-325.295,-515.85683)"
     style="display:none;opacity:0.544">
    <path
       sodipodi:nodetypes="ccccccsscccssccc"
       inkscape:connector-curvature="0"
       id="path3483"
       d="m 535.97311,553.53825 c 7.89148,-2.80656 14.54784,-10.08211 16.53262,-15.06132 4.28093,-7.50463 6.05767,-5.54813 10.40707,-11.46687 3.67836,-4.88609 5.77715,-10.28996 7.73729,-10.64078 2.47389,-0.99647 0.34797,4.04401 0.60055,12.14008 7.45397,4.92804 5.87631,14.09221 7.12921,18.76943 2.75387,10.36651 17.9208,12.40866 26.08293,15.28841 31.12754,10.98238 150.59358,68.29031 59.08526,57.55757 -11.5199,-1.35114 -74.24671,15.13569 -101.20673,5.48105 -10.19096,18.7279 4.9268,37.95516 -9.27706,51.95247 -17.59743,2.62033 -42.05596,-1.81889 -50.36036,-6.7807 0.006,-14.73886 29.87745,-48.36478 15.06313,-49.80407 -8.69971,-0.84522 -29.98369,-9.0743 -36.17671,-9.42341 -136.71258,-7.70678 -28.40041,-70.2823 17.26905,-60.7854 17.09123,2.74662 26.35976,3.17347 37.11375,2.7735 z"
       style="fill:#000000;fill-rule:evenodd;stroke:#000000;stroke-width:1px;stroke-linecap:butt;stroke-linejoin:miter;stroke-opacity:1" />
  </g>
  <g
     style="display:none;opacity:0.544"
     transform="translate(-325.295,-515.85683)"
     id="g3485"
     inkscape:groupmode="layer"
     inkscape:label="20 copy">
    <path
       style="fill:#000000;fill-rule:evenodd;stroke:#000000;stroke-width:1px;stroke-linecap:butt;stroke-linejoin:miter;stroke-opacity:1"
       d="m 535.97311,553.53825 c 7.89148,-2.80656 14.54784,-10.08211 16.53262,-15.06132 4.28093,-7.50463 6.05767,-5.54813 10.40707,-11.46687 3.67836,-4.88609 5.77715,-10.28996 7.73729,-10.64078 2.47389,-0.99647 0.34797,4.04401 0.60055,12.14008 7.45397,4.92804 5.87631,14.09221 7.12921,18.76943 2.75387,10.36651 17.9208,12.40866 26.08293,15.28841 31.12754,10.98238 116.23372,63.04641 26.31905,42.93879 -12.71349,-2.84311 -45.35197,18.36188 -68.44052,13.54659 -10.19096,18.7279 4.9268,44.5084 -9.27706,58.50571 -17.59743,2.62033 -42.05596,-1.81889 -50.36036,-6.7807 0.006,-14.73886 29.37335,-56.43031 14.55903,-57.8696 -8.69971,-0.84522 -27.9673,-9.57839 -34.16032,-9.92751 -34.03448,-1.87867 -64.90856,15.03821 -69.65312,4.91608 -7.82651,-16.69719 23.31252,-52.50017 71.7993,-58.64414 17.09123,2.74662 39.97034,4.68576 50.72433,4.28579 z"
       id="path3487"
       inkscape:connector-curvature="0"
       sodipodi:nodetypes="ccccccsscccscsccc" />
  </g>
  <g
     inkscape:label="20 copy copy"
     inkscape:groupmode="layer"
     id="g3489"
     transform="translate(-325.295,-515.85683)"
     style="display:none;opacity:0.544">
    <path
       sodipodi:nodetypes="ccccccsscccscsccc"
       inkscape:connector-curvature="0"
       id="path3491"
       d="m 535.97311,553.53825 c 7.89148,-2.80656 14.54784,-10.08211 16.53262,-15.06132 4.28093,-7.50463 6.05767,-5.54813 10.40707,-11.46687 3.67836,-4.88609 5.77715,-10.28996 7.73729,-10.64078 2.47389,-0.99647 0.34797,4.04401 0.60055,12.14008 7.45397,4.92804 6.38041,24.67822 7.63331,29.35544 9.8112,6.83784 31.46023,1.52876 39.69351,4.1983 32.09008,10.40486 107.27632,60.45614 12.20437,43.44289 -12.8238,-2.29484 -45.35197,18.36188 -68.44052,13.54659 -10.19096,18.7279 4.9268,44.5084 -9.27706,58.50571 -17.59743,2.62033 -42.05596,-1.81889 -50.36036,-6.7807 0.006,-14.73886 29.37335,-56.43031 14.55903,-57.8696 -8.69971,-0.84522 -25.95092,-20.1644 -32.14394,-20.51352 -34.03448,-1.87867 -93.83598,29.69482 -93.34561,18.52666 1.75131,-39.88558 41.45996,-64.59846 89.94674,-70.74243 17.09123,2.74662 43.49901,13.75948 54.253,13.35951 z"
       style="fill:#000000;fill-rule:evenodd;stroke:#000000;stroke-width:1px;stroke-linecap:butt;stroke-linejoin:miter;stroke-opacity:1" />
  </g>
  <g
     style="display:none;opacity:0.544"
     transform="translate(-325.295,-515.85683)"
     id="g3493"
     inkscape:groupmode="layer"
     inkscape:label="20 copy copy copy">
    <path
       style="fill:#000000;fill-rule:evenodd;stroke:#000000;stroke-width:1px;stroke-linecap:butt;stroke-linejoin:miter;stroke-opacity:1"
       d="m 535.97311,553.53825 c 7.89148,-2.80656 14.54784,-10.08211 16.53262,-15.06132 4.28093,-7.50463 9.58634,-6.80837 13.93574,-12.72711 3.67836,-4.88609 7.54148,-10.28996 9.50162,-10.64078 2.47389,-0.99647 -1.41636,4.04401 -1.16378,12.14008 7.45397,4.92804 2.85174,25.93846 4.10464,30.61568 9.8112,6.83784 49.5823,9.60663 57.75446,12.45779 32.64697,11.39013 128.97777,98.85101 12.20437,43.44289 -11.76977,-5.58467 -63.41292,10.10239 -86.50147,5.2871 -17.51057,37.8715 4.49814,45.62951 -9.27706,58.50571 -16.60873,8.05818 -41.7918,-0.36602 -50.36036,-6.7807 0.006,-14.73886 29.37335,-56.43031 14.55903,-57.8696 -8.69971,-0.84522 -54.28774,-33.72431 -60.48076,-34.07343 -34.03448,-1.87867 -106.10619,26.52135 -101.95107,16.14333 13.34551,-33.33234 50.06542,-62.21513 98.5522,-68.3591 17.09123,2.74662 71.83583,27.31939 82.58982,26.91942 z"
       id="path3495"
       inkscape:connector-curvature="0"
       sodipodi:nodetypes="ccccccsscccscsccc" />
  </g>
  <g
     inkscape:label="20 copy copy copy copy"
     inkscape:groupmode="layer"
     id="g4182"
     transform="translate(-325.295,-515.85683)"
     style="display:none;opacity:0.544">
    <path
       sodipodi:nodetypes="ccccccscscccscsccc"
       inkscape:connector-curvature="0"
       id="path4184"
       d="m 535.97311,553.53825 c 7.89148,-2.80656 14.54784,-10.08211 16.53262,-15.06132 4.28093,-7.50463 9.58634,-6.80837 13.93574,-12.72711 3.67836,-4.88609 7.54148,-10.28996 9.50162,-10.64078 2.47389,-0.99647 -1.41636,4.04401 -1.16378,12.14008 7.45397,4.92804 2.85174,25.93846 4.10464,30.61568 9.8112,6.83784 66.79252,0.21383 74.4761,4.1983 61.49516,31.88954 71.91937,45.82149 87.85061,65.60354 -10.18651,12.79193 -51.65353,8.20719 -91.2732,-10.56645 -11.77272,-5.57846 -64.5076,6.76768 -87.59615,1.95239 -17.51057,37.8715 4.49814,45.62951 -9.27706,58.50571 -16.60873,8.05818 -41.7918,-0.36602 -50.36036,-6.7807 0.006,-14.73886 29.37335,-56.43031 14.55903,-57.8696 -8.69971,-0.84522 -53.67617,-33.77498 -59.86919,-34.1241 -34.03448,-1.87867 -111.24907,28.36876 -105.948,18.52666 19.65138,-36.48528 55.02723,-65.08089 102.54913,-70.74243 17.09123,2.74662 71.22426,27.37006 81.97825,26.97009 z"
       style="fill:#000000;fill-rule:evenodd;stroke:#000000;stroke-width:1px;stroke-linecap:butt;stroke-linejoin:miter;stroke-opacity:1" />
  </g>
  <g
     style="display:none;opacity:0.544"
     transform="translate(-325.295,-515.85683)"
     id="g4186"
     inkscape:groupmode="layer"
     inkscape:label="20 copy copy copy copy copy">
    <path
       style="fill:#000000;fill-rule:evenodd;stroke:#000000;stroke-width:1px;stroke-linecap:butt;stroke-linejoin:miter;stroke-opacity:1"
       d="m 535.97311,553.53825 c 7.89148,-2.80656 14.54784,-10.08211 16.53262,-15.06132 4.28093,-7.50463 9.58634,-6.80837 13.93574,-12.72711 3.67836,-4.88609 7.54148,-10.28996 9.50162,-10.64078 2.47389,-0.99647 -1.41636,4.04401 -1.16378,12.14008 7.45397,4.92804 2.85174,25.93846 4.10464,30.61568 9.8112,6.83784 48.03098,0.72801 56.32866,3.19011 59.10311,17.53719 81.40197,42.2256 89.3629,71.14859 -15.22747,0.18954 -45.10029,-10.44434 -84.71996,-29.21799 -11.77272,-5.57846 -54.42569,20.88236 -77.51424,16.06707 -17.51057,37.8715 4.49814,45.62951 -9.27706,58.50571 -16.60873,8.05818 -41.7918,-0.36602 -50.36036,-6.7807 0.006,-14.73886 29.37335,-56.43031 14.55903,-57.8696 -8.69971,-0.84522 -43.59426,-28.73402 -49.78728,-29.08314 -34.03448,-1.87867 -102.54169,32.93744 -98.38657,22.55942 13.34551,-33.33234 46.50092,-68.63122 94.9877,-74.77519 17.09123,2.74662 61.14235,22.3291 71.89634,21.92913 z"
       id="path4188"
       inkscape:connector-curvature="0"
       sodipodi:nodetypes="ccccccscscccscsccc" />
  </g>
  <g
     inkscape:label="20 copy copy copy copy copy copy"
     inkscape:groupmode="layer"
     id="g4190"
     transform="translate(-325.295,-515.85683)"
     style="display:none;opacity:0.544">
    <path
       sodipodi:nodetypes="ccccccscscccscsccc"
       inkscape:connector-curvature="0"
       id="path4192"
       d="m 535.97311,553.53825 c 7.89148,-2.80656 14.54784,-10.08211 16.53262,-15.06132 4.28093,-7.50463 9.58634,-6.80837 13.93574,-12.72711 3.67836,-4.88609 7.54148,-10.28996 9.50162,-10.64078 2.47389,-0.99647 -1.41636,4.04401 -1.16378,12.14008 7.45397,4.92804 2.85174,25.93846 4.10464,30.61568 9.8112,6.83784 60.63337,-0.78428 68.93105,1.67782 59.10311,17.53719 50.61891,28.8841 96.92433,79.71822 -15.22747,0.18954 -60.72725,-7.41977 -100.34692,-26.19342 -11.77272,-5.57846 -58.96255,10.80045 -82.0511,5.98516 -17.51057,37.8715 4.49814,45.62951 -9.27706,58.50571 -16.60873,8.05818 -41.7918,-0.36602 -50.36036,-6.7807 0.006,-14.73886 29.37335,-56.43031 14.55903,-57.8696 -8.69971,-0.84522 -46.61883,-22.68487 -52.81185,-23.03399 -34.03448,3.03623 -120.12849,17.65888 -114.01354,6.93245 21.21107,-37.20698 65.15246,-59.0534 113.63924,-65.19737 17.09123,2.74662 61.14235,22.3291 71.89634,21.92913 z"
       style="fill:#000000;fill-rule:evenodd;stroke:#000000;stroke-width:1px;stroke-linecap:butt;stroke-linejoin:miter;stroke-opacity:1" />
  </g>
  <g
     style="display:none;opacity:0.544"
     transform="translate(-325.295,-515.85683)"
     id="g4194"
     inkscape:groupmode="layer"
     inkscape:label="20 copy copy copy copy copy copy copy">
    <path
       style="fill:#000000;fill-rule:evenodd;stroke:#000000;stroke-width:1px;stroke-linecap:butt;stroke-linejoin:miter;stroke-opacity:1"
       d="m 535.97311,553.53825 c 7.89148,-2.80656 14.54784,-10.08211 16.53262,-15.06132 4.28093,-7.50463 9.58634,-6.80837 13.93574,-12.72711 3.67836,-4.88609 7.54148,-10.28996 9.50162,-10.64078 2.47389,-0.99647 -1.41636,4.04401 -1.16378,12.14008 7.45397,4.92804 2.85174,25.93846 4.10464,30.61568 9.8112,6.83784 60.63337,-0.78428 68.93105,1.67782 59.10311,17.53719 57.67625,34.93325 103.98167,85.76737 -15.22747,0.18954 -57.19858,9.21538 -96.81825,-9.55827 -11.77272,-5.57846 -68.54037,-5.33061 -91.62892,-10.1459 -17.51057,37.8715 3.48995,39.07627 -10.28525,51.95247 -16.60873,8.05818 -41.7918,-0.36602 -50.36036,-6.7807 0.006,-14.73886 29.37335,-56.43031 14.55903,-57.8696 -8.69971,-0.84522 -71.82361,-28.22992 -78.01663,-28.57904 -57.60382,20.71323 -112.11394,7.99327 -110.98896,-3.65356 26.98107,-33.26098 87.60976,-66.7907 131.78668,-57.13184 17.09123,2.74662 65.17511,30.39463 75.9291,29.99466 z"
       id="path4196"
       inkscape:connector-curvature="0"
       sodipodi:nodetypes="ccccccscscccsccccc" />
  </g>
  <g
     inkscape:label="20 copy copy copy copy copy copy copy copy"
     inkscape:groupmode="layer"
     id="g4198"
     transform="translate(-325.295,-515.85683)"
     style="display:none;opacity:0.544">
    <path
       sodipodi:nodetypes="ccccccscscccsccccc"
       inkscape:connector-curvature="0"
       id="path4200"
       d="m 535.97311,553.53825 c 7.89148,-2.80656 14.54784,-10.08211 16.53262,-15.06132 4.28093,-7.50463 9.58634,-6.80837 13.93574,-12.72711 3.67836,-4.88609 7.54148,-10.28996 9.50162,-10.64078 2.47389,-0.99647 -1.41636,4.04401 -1.16378,12.14008 7.45397,4.92804 2.85174,25.93846 4.10464,30.61568 9.8112,6.83784 60.63337,-0.78428 68.93105,1.67782 59.10311,17.53719 57.67625,34.93325 103.98167,85.76737 -15.22747,0.18954 -58.49182,0.73178 -97.82644,-18.63199 -8.72554,-4.29544 -47.55835,12.15314 -90.62073,-1.07218 -17.51057,37.8715 3.48995,39.07627 -10.28525,51.95247 -16.60873,8.05818 -41.7918,-0.36602 -50.36036,-6.7807 0.006,-14.73886 29.37335,-56.43031 14.55903,-57.8696 -8.69971,-0.84522 -71.31951,-33.77497 -77.51253,-34.12409 -57.60382,20.71323 -101.52794,18.57928 -100.40296,6.93245 26.98107,-33.26099 80.55242,-63.76613 124.72934,-54.10727 17.09123,2.74662 61.14235,22.3291 71.89634,21.92913 z"
       style="fill:#000000;fill-rule:evenodd;stroke:#000000;stroke-width:1px;stroke-linecap:butt;stroke-linejoin:miter;stroke-opacity:1" />
  </g>
  <g
     style="display:none;opacity:0.544"
     transform="translate(-325.295,-515.85683)"
     id="g4202"
     inkscape:groupmode="layer"
     inkscape:label="20 copy copy copy copy copy copy copy copy copy">
    <path
       style="fill:#000000;fill-rule:evenodd;stroke:#000000;stroke-width:1px;stroke-linecap:butt;stroke-linejoin:miter;stroke-opacity:1"
       d="m 535.97311,553.53825 c 7.89148,-2.80656 14.54784,-10.08211 16.53262,-15.06132 4.28093,-7.50463 9.58634,-6.80837 13.93574,-12.72711 3.67836,-4.88609 7.54148,-10.28996 9.50162,-10.64078 2.47389,-0.99647 -1.41636,4.04401 -1.16378,12.14008 7.45397,4.92804 2.85174,25.93846 4.10464,30.61568 9.8112,6.83784 60.63337,-0.78428 68.93105,1.67782 59.10311,17.53719 73.30321,26.36363 119.60863,77.19775 -15.22747,0.18954 -74.11878,9.3014 -113.4534,-10.06237 -8.72554,-4.29544 -47.55835,12.15314 -90.62073,-1.07218 -17.51057,37.8715 3.48995,39.07627 -10.28525,51.95247 -16.60873,8.05818 -46.32866,-5.40698 -54.89722,-11.82166 0.006,-14.73886 33.9635,-53.52845 19.09589,-52.82864 -8.34598,0.39284 -80.83176,-26.48815 -89.10673,-34.12409 -57.60382,20.71323 -96.99108,-2.08864 -95.8661,-13.73547 26.98107,-33.26099 88.11386,-49.65145 132.29078,-39.99259 17.09123,2.74662 60.63825,28.88234 71.39224,28.48237 z"
       id="path4204"
       inkscape:connector-curvature="0"
       sodipodi:nodetypes="ccccccscscccsccccc" />
  </g>
  <g
     transform="translate(-325.295,-515.85683)"
     id="g3357"
     inkscape:groupmode="layer"
     inkscape:label="Layer 1 copy"
     style="display:none;opacity:0.506">
    <path
       sodipodi:nodetypes="cccsssccccccccccc"
       inkscape:connector-curvature="0"
       id="path3359"
       d="m 325.50683,579.05863 c 31.89115,-14.76718 49.52762,-62.63932 125.91844,-59.08311 26.43839,17.6388 68.4383,35.00207 89.64297,29.08914 9.72403,-8.5839 19.21735,-15.82977 28.32153,-25.06849 4.26184,-4.32481 4.66065,-1.89716 5.51594,-3.16335 5.11056,-7.56582 6.00611,-4.483 4.5063,1.34642 -0.62632,2.43438 0.43207,1.43732 1.62001,6.06903 1.3108,12.39901 -1.08444,23.63587 -4.02931,35.51848 29.35715,-3.23857 69.90728,-2.33371 69.90728,-2.33371 63.79089,21.8516 40.48929,21.46629 108.41916,82.27711 -25.91935,22.28322 -47.50452,-5.768 -93.96792,-10.45716 -38.69688,6.55741 -66.12844,4.88336 -99.6071,-4.21388 -5.40711,-5.52748 -8.43898,3.1965 -5.84316,45.68659 -20.462,15.15919 -35.30171,5.01805 -50.5825,-3.13822 5.33734,-21.20015 20.35237,-56.91684 11.32736,-56.57348 -32.87521,-8.4795 -65.08954,-18.06049 -90.06402,-39.70787 -32.79888,24.07579 -70.36548,28.53876 -101.08498,3.7525 z"
       style="fill:#000000;fill-rule:evenodd;stroke:#000000;stroke-width:1px;stroke-linecap:butt;stroke-linejoin:miter;stroke-opacity:1" />
  </g>
  <g
     inkscape:label="Layer 1"
     inkscape:groupmode="layer"
     id="layer1"
     transform="translate(-325.295,-515.85683)"
     style="display:inline;opacity:0.544">
    <path
       style="fill:#000000;fill-rule:evenodd;stroke:#000000;stroke-width:1px;stroke-linecap:butt;stroke-linejoin:miter;stroke-opacity:1"
       d="m 326.21695,545.68276 c 31.89115,-14.76718 64.44025,-29.26345 140.83107,-25.70724 26.43839,17.6388 52.81555,35.00207 74.02022,29.08914 9.72403,-8.5839 19.21735,-15.82977 28.32153,-25.06849 4.26184,-4.32481 4.66065,-1.89716 5.51594,-3.16335 5.11056,-7.56582 6.00611,-4.483 4.5063,1.34642 -0.62632,2.43438 0.43207,1.43732 1.62001,6.06903 1.3108,12.39901 -1.08444,23.63587 -4.02931,35.51848 29.35715,6.74201 81.26928,-6.59446 81.26928,-6.59446 63.79089,21.8516 53.27153,15.07517 121.2014,75.88599 6.43918,7.82437 -4.53911,8.95184 -59.33545,6.12655 l -47.41471,-14.45334 c -38.69688,6.55741 -77.49044,13.40486 -110.9691,4.30762 -5.40711,-5.52748 -8.43898,3.1965 -5.84316,45.68659 -20.462,15.15919 -35.30171,5.01805 -50.5825,-3.13822 5.33734,-21.20015 20.35237,-56.91684 11.32736,-56.57348 -32.87521,-8.4795 -65.08954,-18.06049 -90.06402,-39.70787 l -52.19955,-2.00853 c -19.69329,-1.93523 -33.64796,-15.34772 -48.17531,-27.61484 z"
       id="path3336"
       inkscape:connector-curvature="0"
       sodipodi:nodetypes="cccsssccccccccccccc" />
  </g>
</svg>
