<?xml version="1.0" encoding="UTF-8" standalone="no"?>
<!-- Created with Inkscape (http://www.inkscape.org/) -->

<svg
   xmlns:dc="http://purl.org/dc/elements/1.1/"
   xmlns:cc="http://creativecommons.org/ns#"
   xmlns:rdf="http://www.w3.org/1999/02/22-rdf-syntax-ns#"
   xmlns:svg="http://www.w3.org/2000/svg"
   xmlns="http://www.w3.org/2000/svg"
   xmlns:sodipodi="http://sodipodi.sourceforge.net/DTD/sodipodi-0.dtd"
   xmlns:inkscape="http://www.inkscape.org/namespaces/inkscape"
   id="svg3355"
   version="1.1"
   inkscape:version="0.91 r13725"
   width="1589.1315"
   height="2539.491"
   viewBox="0 0 1589.1315 2539.491"
   sodipodi:docname="plough.jpg.svg">
  <metadata
     id="metadata3361">
    <rdf:RDF>
      <cc:Work
         rdf:about="">
        <dc:format>image/svg+xml</dc:format>
        <dc:type
           rdf:resource="http://purl.org/dc/dcmitype/StillImage" />
        <dc:title></dc:title>
      </cc:Work>
    </rdf:RDF>
  </metadata>
  <defs
     id="defs3359" />
  <sodipodi:namedview
     pagecolor="#ffffff"
     bordercolor="#666666"
     borderopacity="1"
     objecttolerance="10"
     gridtolerance="10"
     guidetolerance="10"
     inkscape:pageopacity="0"
     inkscape:pageshadow="2"
     inkscape:window-width="1362"
     inkscape:window-height="729"
     id="namedview3357"
     showgrid="false"
     inkscape:zoom="0.079903151"
     inkscape:cx="537.34051"
     inkscape:cy="453.40313"
     inkscape:window-x="0"
     inkscape:window-y="18"
     inkscape:window-maximized="0"
     inkscape:current-layer="svg3355"
     fit-margin-top="0"
     fit-margin-left="0"
     fit-margin-right="0"
     fit-margin-bottom="0" />
  <path
     style="opacity:1;fill:#ff0000;fill-opacity:1;stroke:none;stroke-width:2.07999992;stroke-linecap:round;stroke-linejoin:miter;stroke-miterlimit:4;stroke-dasharray:none;stroke-dashoffset:0;stroke-opacity:1"
     id="path3369"
     sodipodi:type="arc"
     sodipodi:cx="-1917.5563"
     sodipodi:cy="-1000.2919"
     sodipodi:rx="14.079545"
     sodipodi:ry="14.079545"
     sodipodi:start="3.1263036"
     sodipodi:end="3.122237"
     sodipodi:open="true"
     d="m -1931.6342,-1000.0766 a 14.079545,14.079545 0 0 1 13.8484,-14.2929 14.079545,14.079545 0 0 1 14.307,13.8338 14.079545,14.079545 0 0 1 -13.8193,14.32101 14.079545,14.079545 0 0 1 -14.3351,-13.80471"
     transform="matrix(-0.73209974,-0.68119745,0.68119745,-0.73209974,0,0)" />
  <path
     style="opacity:1;fill:#ff0000;fill-opacity:1;stroke:none;stroke-width:2.07999992;stroke-linecap:round;stroke-linejoin:miter;stroke-miterlimit:4;stroke-dasharray:none;stroke-dashoffset:0;stroke-opacity:1"
     id="path3371"
     sodipodi:type="arc"
     sodipodi:cx="-1892.1349"
     sodipodi:cy="-683.89301"
     sodipodi:rx="13.688447"
     sodipodi:ry="13.688447"
     sodipodi:start="3.1263036"
     sodipodi:end="3.122237"
     sodipodi:open="true"
     d="m -1905.8217,-683.68373 a 13.688447,13.688447 0 0 1 13.4636,-13.8959 13.688447,13.688447 0 0 1 13.9096,13.44952 13.688447,13.688447 0 0 1 -13.4354,13.92325 13.688447,13.688447 0 0 1 -13.9369,-13.42121"
     transform="matrix(-0.73209974,-0.68119745,0.68119745,-0.73209974,0,0)" />
  <path
     style="opacity:1;fill:#ff0000;fill-opacity:1;stroke:none;stroke-width:2.07999992;stroke-linecap:round;stroke-linejoin:miter;stroke-miterlimit:4;stroke-dasharray:none;stroke-dashoffset:0;stroke-opacity:1"
     id="path3373"
     sodipodi:type="arc"
     sodipodi:cx="-2246.0791"
     sodipodi:cy="-1362.8398"
     sodipodi:rx="11.732954"
     sodipodi:ry="11.732954"
     sodipodi:start="3.1263036"
     sodipodi:end="3.122237"
     sodipodi:open="true"
     d="m -2257.8107,-1362.6605 a 11.732954,11.732954 0 0 1 11.5403,-11.9107 11.732954,11.732954 0 0 1 11.9225,11.5281 11.732954,11.732954 0 0 1 -11.516,11.9342 11.732954,11.732954 0 0 1 -11.946,-11.5039"
     transform="matrix(-0.73209974,-0.68119745,0.68119745,-0.73209974,0,0)" />
  <path
     style="opacity:1;fill:#ff0000;fill-opacity:1;stroke:none;stroke-width:2.07999992;stroke-linecap:round;stroke-linejoin:miter;stroke-miterlimit:4;stroke-dasharray:none;stroke-dashoffset:0;stroke-opacity:1"
     id="path3375"
     sodipodi:type="arc"
     sodipodi:cx="-1836.2402"
     sodipodi:cy="-302.90485"
     sodipodi:rx="10.180772"
     sodipodi:ry="10.180772"
     sodipodi:start="3.1263036"
     sodipodi:end="3.122237"
     sodipodi:open="true"
     d="m -1846.4198,-302.7492 a 10.180772,10.180772 0 0 1 10.0136,-10.33506 10.180772,10.180772 0 0 1 10.3452,10.00307 10.180772,10.180772 0 0 1 -9.9925,10.3554 10.180772,10.180772 0 0 1 -10.3656,-9.98201"
     transform="matrix(-0.73209974,-0.68119745,0.68119745,-0.73209974,0,0)" />
  <path
     style="opacity:1;fill:#ff0000;fill-opacity:1;stroke:none;stroke-width:2.07999992;stroke-linecap:round;stroke-linejoin:miter;stroke-miterlimit:4;stroke-dasharray:none;stroke-dashoffset:0;stroke-opacity:1"
     id="path3377"
     sodipodi:type="arc"
     sodipodi:cx="-1760.0985"
     sodipodi:cy="425.33783"
     sodipodi:rx="10.824695"
     sodipodi:ry="10.824695"
     sodipodi:start="3.1263036"
     sodipodi:end="3.122237"
     sodipodi:open="true"
     d="m -1770.9219,425.50332 a 10.824695,10.824695 0 0 1 10.6469,-10.98875 10.824695,10.824695 0 0 1 10.9996,10.63576 10.824695,10.824695 0 0 1 -10.6246,11.01037 10.824695,10.824695 0 0 1 -11.0212,-10.61336"
     transform="matrix(-0.73209974,-0.68119745,0.68119745,-0.73209974,0,0)" />
  <path
     style="opacity:1;fill:#ff0000;fill-opacity:1;stroke:none;stroke-width:2.07999992;stroke-linecap:round;stroke-linejoin:miter;stroke-miterlimit:4;stroke-dasharray:none;stroke-dashoffset:0;stroke-opacity:1"
     id="path3379"
     sodipodi:type="arc"
     sodipodi:cx="-1390.4532"
     sodipodi:cy="292.97308"
     sodipodi:rx="9.8752365"
     sodipodi:ry="9.8752365"
     sodipodi:start="3.1263036"
     sodipodi:end="3.122237"
     sodipodi:open="true"
     d="m -1400.3273,293.12406 a 9.8752365,9.8752365 0 0 1 9.713,-10.0249 9.8752365,9.8752365 0 0 1 10.0348,9.70287 9.8752365,9.8752365 0 0 1 -9.6927,10.04463 9.8752365,9.8752365 0 0 1 -10.0544,-9.68245"
     transform="matrix(-0.73209974,-0.68119745,0.68119745,-0.73209974,0,0)" />
  <path
     style="opacity:1;fill:#ff0000;fill-opacity:1;stroke:none;stroke-width:2.07999992;stroke-linecap:round;stroke-linejoin:miter;stroke-miterlimit:4;stroke-dasharray:none;stroke-dashoffset:0;stroke-opacity:1"
     id="path3381"
     sodipodi:type="arc"
     sodipodi:cx="-2060.0139"
     sodipodi:cy="-65.859764"
     sodipodi:rx="9.386364"
     sodipodi:ry="9.386364"
     sodipodi:start="3.1263036"
     sodipodi:end="3.122237"
     sodipodi:open="true"
     d="m -2069.3992,-65.716261 a 9.386364,9.386364 0 0 1 9.2322,-9.528619 9.386364,9.386364 0 0 1 9.538,9.22253 9.386364,9.386364 0 0 1 -9.2128,9.547372 9.386364,9.386364 0 0 1 -9.5567,-9.203118"
     transform="matrix(-0.73209974,-0.68119745,0.68119745,-0.73209974,0,0)" />
  <path
     style="opacity:1;fill:#ff0000;fill-opacity:1;stroke:none;stroke-width:2.07999992;stroke-linecap:round;stroke-linejoin:miter;stroke-miterlimit:4;stroke-dasharray:none;stroke-dashoffset:0;stroke-opacity:1"
     id="path3379-4"
     sodipodi:type="arc"
     sodipodi:cx="-13.956644"
     sodipodi:cy="-0.50267214"
     sodipodi:rx="9.8752365"
     sodipodi:ry="9.8752365"
     sodipodi:start="3.1263036"
     sodipodi:end="3.122237"
     sodipodi:open="true"
     d="M -23.830726,-0.351695 A 9.8752365,9.8752365 0 0 1 -14.11766,-10.376596 9.8752365,9.8752365 0 0 1 -4.0828891,-0.67372592 9.8752365,9.8752365 0 0 1 -13.775552,9.3709038 9.8752365,9.8752365 0 0 1 -23.830031,-0.31154241"
     transform="matrix(-0.73209974,-0.68119745,0.68119745,-0.73209974,0,0)" />
</svg>
