<?xml version="1.0" encoding="UTF-8" standalone="no"?>
<!-- Created with Inkscape (http://www.inkscape.org/) -->

<svg
   xmlns:dc="http://purl.org/dc/elements/1.1/"
   xmlns:cc="http://creativecommons.org/ns#"
   xmlns:rdf="http://www.w3.org/1999/02/22-rdf-syntax-ns#"
   xmlns:svg="http://www.w3.org/2000/svg"
   xmlns="http://www.w3.org/2000/svg"
   xmlns:sodipodi="http://sodipodi.sourceforge.net/DTD/sodipodi-0.dtd"
   xmlns:inkscape="http://www.inkscape.org/namespaces/inkscape"
   id="svg3355"
   version="1.1"
   inkscape:version="0.91 r13725"
   width="2063.75"
   height="3097.5"
   viewBox="0 0 2063.75 3097.5"
   sodipodi:docname="plough.jpg.svg">
  <metadata
     id="metadata3361">
    <rdf:RDF>
      <cc:Work
         rdf:about="">
        <dc:format>image/svg+xml</dc:format>
        <dc:type
           rdf:resource="http://purl.org/dc/dcmitype/StillImage" />
        <dc:title></dc:title>
      </cc:Work>
    </rdf:RDF>
  </metadata>
  <defs
     id="defs3359" />
  <sodipodi:namedview
     pagecolor="#ffffff"
     bordercolor="#666666"
     borderopacity="1"
     objecttolerance="10"
     gridtolerance="10"
     guidetolerance="10"
     inkscape:pageopacity="0"
     inkscape:pageshadow="2"
     inkscape:window-width="1366"
     inkscape:window-height="711"
     id="namedview3357"
     showgrid="false"
     inkscape:zoom="0.11300012"
     inkscape:cx="547.15615"
     inkscape:cy="863.05762"
     inkscape:window-x="0"
     inkscape:window-y="24"
     inkscape:window-maximized="1"
     inkscape:current-layer="svg3355" />
  <path
     style="opacity:1;fill:#000000;fill-opacity:1;stroke:none;stroke-width:2.07999992;stroke-linecap:round;stroke-linejoin:miter;stroke-miterlimit:4;stroke-dasharray:none;stroke-dashoffset:0;stroke-opacity:1"
     id="path3369"
     sodipodi:type="arc"
     sodipodi:cx="912.82385"
     sodipodi:cy="1068.481"
     sodipodi:rx="14.079545"
     sodipodi:ry="14.079545"
     sodipodi:start="3.1263036"
     sodipodi:end="3.122237"
     sodipodi:open="true"
     d="m 898.74595,1068.6962 a 14.079545,14.079545 0 0 1 13.84834,-14.2929 14.079545,14.079545 0 0 1 14.307,13.8338 14.079545,14.079545 0 0 1 -13.81925,14.321 14.079545,14.079545 0 0 1 -14.3351,-13.8046" />
  <path
     style="opacity:1;fill:#000000;fill-opacity:1;stroke:none;stroke-width:2.07999992;stroke-linecap:round;stroke-linejoin:miter;stroke-miterlimit:4;stroke-dasharray:none;stroke-dashoffset:0;stroke-opacity:1"
     id="path3371"
     sodipodi:type="arc"
     sodipodi:cx="938.24524"
     sodipodi:cy="1384.8798"
     sodipodi:rx="13.688447"
     sodipodi:ry="13.688447"
     sodipodi:start="3.1263036"
     sodipodi:end="3.122237"
     sodipodi:open="true"
     d="m 924.55839,1385.089 a 13.688447,13.688447 0 0 1 13.46366,-13.8959 13.688447,13.688447 0 0 1 13.90958,13.4496 13.688447,13.688447 0 0 1 -13.43537,13.9232 13.688447,13.688447 0 0 1 -13.9369,-13.4212" />
  <path
     style="opacity:1;fill:#000000;fill-opacity:1;stroke:none;stroke-width:2.07999992;stroke-linecap:round;stroke-linejoin:miter;stroke-miterlimit:4;stroke-dasharray:none;stroke-dashoffset:0;stroke-opacity:1"
     id="path3373"
     sodipodi:type="arc"
     sodipodi:cx="584.30115"
     sodipodi:cy="705.9328"
     sodipodi:rx="11.732954"
     sodipodi:ry="11.732954"
     sodipodi:start="3.1263036"
     sodipodi:end="3.122237"
     sodipodi:open="true"
     d="m 572.56956,706.11218 a 11.732954,11.732954 0 0 1 11.54028,-11.91077 11.732954,11.732954 0 0 1 11.9225,11.52816 11.732954,11.732954 0 0 1 -11.51603,11.93421 11.732954,11.732954 0 0 1 -11.94592,-11.50389" />
  <path
     style="opacity:1;fill:#000000;fill-opacity:1;stroke:none;stroke-width:2.07999992;stroke-linecap:round;stroke-linejoin:miter;stroke-miterlimit:4;stroke-dasharray:none;stroke-dashoffset:0;stroke-opacity:1"
     id="path3375"
     sodipodi:type="arc"
     sodipodi:cx="994.13995"
     sodipodi:cy="1765.8679"
     sodipodi:rx="10.180772"
     sodipodi:ry="10.180772"
     sodipodi:start="3.1263036"
     sodipodi:end="3.122237"
     sodipodi:open="true"
     d="m 983.96037,1766.0236 a 10.180772,10.180772 0 0 1 10.01359,-10.3351 10.180772,10.180772 0 0 1 10.34524,10.0031 10.180772,10.180772 0 0 1 -9.99255,10.3554 10.180772,10.180772 0 0 1 -10.36556,-9.982" />
  <path
     style="opacity:1;fill:#000000;fill-opacity:1;stroke:none;stroke-width:2.07999992;stroke-linecap:round;stroke-linejoin:miter;stroke-miterlimit:4;stroke-dasharray:none;stroke-dashoffset:0;stroke-opacity:1"
     id="path3377"
     sodipodi:type="arc"
     sodipodi:cx="1070.2816"
     sodipodi:cy="2494.1106"
     sodipodi:rx="10.824695"
     sodipodi:ry="10.824695"
     sodipodi:start="3.1263036"
     sodipodi:end="3.122237"
     sodipodi:open="true"
     d="m 1059.4582,2494.2761 a 10.824695,10.824695 0 0 1 10.6469,-10.9888 10.824695,10.824695 0 0 1 10.9996,10.6358 10.824695,10.824695 0 0 1 -10.6246,11.0104 10.824695,10.824695 0 0 1 -11.0212,-10.6134" />
  <path
     style="opacity:1;fill:#000000;fill-opacity:1;stroke:none;stroke-width:2.07999992;stroke-linecap:round;stroke-linejoin:miter;stroke-miterlimit:4;stroke-dasharray:none;stroke-dashoffset:0;stroke-opacity:1"
     id="path3379"
     sodipodi:type="arc"
     sodipodi:cx="1439.9269"
     sodipodi:cy="2361.7458"
     sodipodi:rx="9.8752365"
     sodipodi:ry="9.8752365"
     sodipodi:start="3.1263036"
     sodipodi:end="3.122237"
     sodipodi:open="true"
     d="m 1430.0528,2361.8968 a 9.8752365,9.8752365 0 0 1 9.7131,-10.0249 9.8752365,9.8752365 0 0 1 10.0347,9.7029 9.8752365,9.8752365 0 0 1 -9.6926,10.0446 9.8752365,9.8752365 0 0 1 -10.0545,-9.6824" />
  <path
     style="opacity:1;fill:#000000;fill-opacity:1;stroke:none;stroke-width:2.07999992;stroke-linecap:round;stroke-linejoin:miter;stroke-miterlimit:4;stroke-dasharray:none;stroke-dashoffset:0;stroke-opacity:1"
     id="path3381"
     sodipodi:type="arc"
     sodipodi:cx="770.36627"
     sodipodi:cy="2002.913"
     sodipodi:rx="9.386364"
     sodipodi:ry="9.386364"
     sodipodi:start="3.1263036"
     sodipodi:end="3.122237"
     sodipodi:open="true"
     d="m 760.98101,2003.0565 a 9.386364,9.386364 0 0 1 9.23222,-9.5287 9.386364,9.386364 0 0 1 9.538,9.2226 9.386364,9.386364 0 0 1 -9.21283,9.5473 9.386364,9.386364 0 0 1 -9.55673,-9.2031" />
  <path
     style="opacity:1;fill:#000000;fill-opacity:1;stroke:none;stroke-width:2.07999992;stroke-linecap:round;stroke-linejoin:miter;stroke-miterlimit:4;stroke-dasharray:none;stroke-dashoffset:0;stroke-opacity:1"
     id="path3383"
     sodipodi:type="arc"
     sodipodi:cx="2978.1614"
     sodipodi:cy="1449.6589"
     sodipodi:rx="49.615898"
     sodipodi:ry="47.962032"
     sodipodi:start="3.1263036"
     sodipodi:end="3.122237"
     sodipodi:open="true"
     d="m 2928.5513,1450.3922 a 49.615898,47.962032 0 0 1 48.8011,-48.6889 49.615898,47.962032 0 0 1 50.4174,47.1249 49.615898,47.962032 0 0 1 -48.6986,48.7847 49.615898,47.962032 0 0 1 -50.5164,-47.0257" />
</svg>
